<svg xmlns="http://www.w3.org/2000/svg" width="53" height="53" viewBox="0 0 53 53">
  <g id="Group_540" data-name="Group 540" transform="translate(-1063 -8135)">
    <circle id="Ellipse_4" data-name="Ellipse 4" cx="26.5" cy="26.5" r="26.5" transform="translate(1063 8135)" fill="#3281f2"/>
    <path id="_8665305_envelope_email_icon_1_" data-name="8665305_envelope_email_icon (1)" d="M11.122,12.478a3.283,3.283,0,0,1-1.063-.177,3.337,3.337,0,0,1-.507-.222,3.449,3.449,0,0,1-.477-.312L0,4.735l.01,9.82a2.069,2.069,0,0,0,.611,1.468,2.081,2.081,0,0,0,1.473.608H20.146a2.078,2.078,0,0,0,2.084-2.076l.01-9.82-9.069,7.038a3.45,3.45,0,0,1-.478.309,3.365,3.365,0,0,1-.508.22,3.309,3.309,0,0,1-1.063.176ZM.711,3.525l9.217,7.152a1.949,1.949,0,0,0,2.39,0l9.217-7.152a2.107,2.107,0,0,0,.506-.64,1.9,1.9,0,0,0,.148-.389,1.673,1.673,0,0,0,.054-.415A2.081,2.081,0,0,0,20.159,0H2.085A2.078,2.078,0,0,0,0,2.082,1.831,1.831,0,0,0,.711,3.525Z" transform="translate(1078 8153)" fill="#fff"/>
  </g>
</svg>
