<svg xmlns="http://www.w3.org/2000/svg" xmlns:xlink="http://www.w3.org/1999/xlink" width="82" height="82" viewBox="0 0 82 82">
  <defs>
    <clipPath id="clip-path">
      <path id="Union_6" data-name="Union 6" d="M-1542,85V3h82V70h-15V85Z" transform="translate(1826 297)" fill="#fff"/>
    </clipPath>
    <clipPath id="clip-path-2">
      <path id="Union_4" data-name="Union 4" d="M-1542,427V109h55V3h428V109h-377V427Z" transform="translate(1525 218)" fill="#fff"/>
    </clipPath>
    <clipPath id="clip-path-3">
      <rect id="Rectangle_35" data-name="Rectangle 35" width="357" height="327" transform="translate(0 0)"/>
    </clipPath>
  </defs>
  <g id="icn-top-left" transform="translate(-284 -300)" clip-path="url(#clip-path)">
    <g id="Mask_Group_27" data-name="Mask Group 27" transform="translate(222)" clip-path="url(#clip-path-2)">
      <g id="Mask_Group_3" data-name="Mask Group 3" transform="translate(61 300)" clip-path="url(#clip-path-3)">
        <path id="Union_1" data-name="Union 1" d="M396.271,0l.536.537L.536,396.049,0,395.512Zm0,7.591.536.537L.536,403.641,0,403.1Zm0,7.591.536.537L.536,411.232,0,410.695Zm0,7.591.536.537L.536,418.823,0,418.286Zm0,7.591.536.537L.536,426.414,0,425.877Zm0,7.592.536.537L.536,434.006,0,433.469Zm0,7.591.536.537L.536,441.6,0,441.061Zm0,7.591.536.537L.536,449.189,0,448.652Zm0,7.591.536.537L.536,456.78,0,456.243Zm0,7.591.536.537L.536,464.372,0,463.834Zm0,7.591.536.537L.536,471.963,0,471.426Zm0,7.591.536.537L.536,479.554,0,479.017Zm0,7.591.536.537L.536,487.146,0,486.608Zm0,7.591.536.537L.536,494.737,0,494.2Zm0,7.592.536.537L.536,502.328,0,501.791Zm0,7.591.536.537L.536,509.92,0,509.383Zm0,7.591.536.537L.536,517.512,0,516.974Zm0,7.591.536.537L.536,525.1,0,524.566Zm0,7.591.536.537L.536,532.694,0,532.157Zm0,7.591.536.537L.536,540.286,0,539.748Zm0,7.591.536.537L.536,547.877,0,547.34Zm0,7.591.536.537L.536,555.468,0,554.931Zm0,7.591.536.537L.536,563.06,0,562.522Zm0,7.592.536.537L.536,570.651,0,570.114Zm0,7.591.536.537L.536,578.243,0,577.706Zm0,7.591.536.537L.536,585.834,0,585.3Zm0,7.591.536.537L.536,593.426,0,592.888Zm0,7.591.536.537L.536,601.017,0,600.48Zm0,8.35.536.537L.536,609.367,0,608.83Zm0,7.591.536.537L.536,616.959,0,616.421Zm0,7.591.536.537L.536,624.55,0,624.013Zm0,7.592.536.537L.536,632.141,0,631.6Zm0,7.591.536.537L.536,639.733,0,639.2Zm0,7.591.536.537L.536,647.325,0,646.787Zm0,7.591.536.537L.536,654.916,0,654.379Zm0,7.591.536.537L.536,662.507,0,661.97Zm0,7.591.536.537L.536,670.1,0,669.561Zm0,7.591.536.537L.536,677.69,0,677.153Zm0,7.591.536.537L.536,685.281,0,684.744Zm0,7.591.536.537L.536,692.872,0,692.335Zm0,7.592.536.537L.536,700.464,0,699.927Zm0,7.591.536.537L.536,708.056,0,707.519Zm0,7.591.536.537L.536,715.647,0,715.11Zm0,7.591.536.537L.536,723.239,0,722.7Zm0,7.591.536.537L.536,730.83,0,730.293Zm0,7.591.536.537L.536,738.421,0,737.884Zm0,7.591.536.537L.536,746.012,0,745.475Zm0,7.591.536.537L.536,753.6,0,753.066Zm0,7.591.536.537L.536,761.2,0,760.658Zm0,7.592.536.537L.536,768.786,0,768.249Zm0,7.591.536.537L.536,776.378,0,775.841Zm0,7.591.536.537L.536,783.97,0,783.433Z" transform="translate(-16.402 -378.783)" fill="#b1cafe"/>
      </g>
    </g>
  </g>
</svg>
