<svg xmlns="http://www.w3.org/2000/svg" xmlns:xlink="http://www.w3.org/1999/xlink" width="82" height="82" viewBox="0 0 82 82">
  <defs>
    <clipPath id="clip-path">
      <path id="Union_16" data-name="Union 16" d="M0,0V82H82V15H67V0Z" transform="translate(82 82) rotate(180)" fill="#fff"/>
    </clipPath>
    <clipPath id="clip-path-2">
      <path id="Union_15" data-name="Union 15" d="M0,0V318H55V424H483V318H106V0Z" transform="translate(482.999 424) rotate(180)" fill="#fff"/>
    </clipPath>
    <clipPath id="clip-path-3">
      <rect id="Rectangle_176" data-name="Rectangle 176" width="357" height="327"/>
    </clipPath>
  </defs>
  <g id="icn-top-right" clip-path="url(#clip-path)">
    <g id="Mask_Group_42" data-name="Mask Group 42" transform="translate(-322 -79)" clip-path="url(#clip-path-2)">
      <g id="Mask_Group_41" data-name="Mask Group 41" transform="translate(48 79)" clip-path="url(#clip-path-3)">
        <path id="Union_1" data-name="Union 1" d="M.536,0,0,.537,396.271,396.049l.536-.537Zm0,7.591L0,8.129,396.271,403.641l.536-.537Zm0,7.591L0,15.72,396.271,411.232l.536-.537Zm0,7.591L0,23.311,396.271,418.823l.536-.537Zm0,7.591L0,30.9,396.271,426.414l.536-.537Zm0,7.592L0,38.495,396.271,434.006l.536-.537Zm0,7.591L0,46.086,396.271,441.6l.536-.537Zm0,7.591L0,53.677,396.271,449.189l.536-.537Zm0,7.591L0,61.269,396.271,456.78l.536-.537Zm0,7.591L0,68.86,396.271,464.372l.536-.537Zm0,7.591L0,76.451,396.271,471.963l.536-.537Zm0,7.591L0,84.042,396.271,479.554l.536-.537Zm0,7.591L0,91.634,396.271,487.146l.536-.537Zm0,7.591L0,99.225,396.271,494.737l.536-.537Zm0,7.592L0,106.817,396.271,502.328l.536-.537Zm0,7.591L0,114.408,396.271,509.92l.536-.537Zm0,7.591L0,122,396.271,517.512l.536-.537Zm0,7.591L0,129.591,396.271,525.1l.536-.537Zm0,7.591L0,137.182,396.271,532.694l.536-.537Zm0,7.591L0,144.774,396.271,540.286l.536-.537Zm0,7.591L0,152.365,396.271,547.877l.536-.537Zm0,7.591L0,159.956,396.271,555.468l.536-.537Zm0,7.591L0,167.548,396.271,563.06l.536-.537Zm0,7.592L0,175.14,396.271,570.651l.536-.537Zm0,7.591L0,182.731,396.271,578.243l.536-.537Zm0,7.591L0,190.322,396.271,585.834l.536-.537Zm0,7.591L0,197.914,396.271,593.426l.536-.537Zm0,7.591L0,205.5,396.271,601.017l.536-.537Zm0,8.35L0,213.855,396.271,609.367l.536-.537Zm0,7.591L0,221.447,396.271,616.959l.536-.537Zm0,7.591L0,229.038,396.271,624.55l.536-.537Zm0,7.592L0,236.63,396.271,632.141l.536-.537Zm0,7.591L0,244.221,396.271,639.733l.536-.537Zm0,7.591L0,251.813,396.271,647.325l.536-.537Zm0,7.591L0,259.4,396.271,654.916l.536-.537Zm0,7.591L0,267,396.271,662.507l.536-.537Zm0,7.591L0,274.587,396.271,670.1l.536-.537Zm0,7.591L0,282.178,396.271,677.69l.536-.537Zm0,7.591L0,289.769,396.271,685.281l.536-.537Zm0,7.591L0,297.361,396.271,692.872l.536-.537Zm0,7.592L0,304.953,396.271,700.464l.536-.537Zm0,7.591L0,312.544,396.271,708.056l.536-.537Zm0,7.591L0,320.135,396.271,715.647l.536-.537Zm0,7.591L0,327.727,396.271,723.239l.536-.537Zm0,7.591L0,335.318,396.271,730.83l.536-.537Zm0,7.591L0,342.909,396.271,738.421l.536-.537Zm0,7.591L0,350.5,396.271,746.012l.536-.537Zm0,7.591L0,358.092,396.271,753.6l.536-.537Zm0,7.591L0,365.683,396.271,761.2l.536-.537Zm0,7.592L0,373.275,396.271,768.786l.536-.537Zm0,7.591L0,380.867,396.271,776.378l.536-.537Zm0,7.591L0,388.458,396.271,783.97l.536-.537Z" transform="translate(-23.405 -378.783)" fill="#b1cafe"/>
      </g>
    </g>
  </g>
</svg>
