<svg xmlns="http://www.w3.org/2000/svg" xmlns:xlink="http://www.w3.org/1999/xlink" width="82" height="82" viewBox="0 0 82 82">
  <defs>
    <clipPath id="clip-path">
      <path id="Union_6" data-name="Union 6" d="M0,0V82H82V15H67V0Z" transform="translate(0 0)" fill="#fff"/>
    </clipPath>
    <clipPath id="clip-path-2">
      <path id="Union_4" data-name="Union 4" d="M0,0V318H55V424H483V318H106V0Z" transform="translate(0 0)" fill="#fff"/>
    </clipPath>
    <clipPath id="clip-path-3">
      <rect id="Rectangle_35" data-name="Rectangle 35" width="357" height="327" transform="translate(0)"/>
    </clipPath>
  </defs>
  <g id="icn-bootm-left" transform="translate(0 0)" clip-path="url(#clip-path)">
    <g id="Mask_Group_27" data-name="Mask Group 27" transform="translate(-79 -263)" clip-path="url(#clip-path-2)">
      <g id="Mask_Group_3" data-name="Mask Group 3" transform="translate(78 18)" clip-path="url(#clip-path-3)">
        <path id="Union_1" data-name="Union 1" d="M396.271,783.97l.536-.537L.536,387.921,0,388.458Zm0-7.591.536-.537L.536,380.329,0,380.867Zm0-7.591.536-.537L.536,372.738,0,373.275Zm0-7.591.536-.537L.536,365.147,0,365.684Zm0-7.591.536-.537L.536,357.555,0,358.093Zm0-7.592.536-.537L.536,349.964,0,350.5Zm0-7.591.536-.537L.536,342.372,0,342.909Zm0-7.591.536-.537L.536,334.781,0,335.318Zm0-7.591.536-.537L.536,327.189,0,327.727Zm0-7.591.536-.537L.536,319.6,0,320.135Zm0-7.591.536-.537L.536,312.007,0,312.544Zm0-7.591.536-.537L.536,304.415,0,304.953Zm0-7.591.536-.537L.536,296.824,0,297.361Zm0-7.591.536-.537L.536,289.233,0,289.77Zm0-7.592.536-.537L.536,281.641,0,282.179Zm0-7.591.536-.537L.536,274.049,0,274.587Zm0-7.591.536-.537L.536,266.458,0,267Zm0-7.591.536-.537L.536,258.867,0,259.4Zm0-7.591.536-.537L.536,251.275,0,251.813Zm0-7.591.536-.537L.536,243.684,0,244.221Zm0-7.591.536-.537L.536,236.093,0,236.63Zm0-7.591.536-.537L.536,228.5,0,229.039Zm0-7.591.536-.537L.536,220.91,0,221.448Zm0-7.592.536-.537L.536,213.319,0,213.856Zm0-7.591.536-.537L.536,205.727,0,206.264Zm0-7.591.536-.537L.536,198.135,0,198.673Zm0-7.591.536-.537L.536,190.544,0,191.081Zm0-7.591.536-.537L.536,182.953,0,183.49Zm0-8.35.536-.537L.536,174.6,0,175.14Zm0-7.591.536-.537L.536,167.011,0,167.549Zm0-7.591.536-.537L.536,159.42,0,159.957Zm0-7.592.536-.537L.536,151.828,0,152.366Zm0-7.591.536-.537L.536,144.237,0,144.774Zm0-7.591.536-.537L.536,136.645,0,137.182Zm0-7.591.536-.537L.536,129.054,0,129.591Zm0-7.591.536-.537L.536,121.462,0,122Zm0-7.591.536-.537L.536,113.871,0,114.408Zm0-7.591.536-.537L.536,106.28,0,106.817Zm0-7.591.536-.537L.536,98.689,0,99.226Zm0-7.591.536-.537L.536,91.1,0,91.635Zm0-7.592.536-.537L.536,83.506,0,84.043Zm0-7.591.536-.537L.536,75.914,0,76.451Zm0-7.591.536-.537L.536,68.323,0,68.86Zm0-7.591.536-.537L.536,60.731,0,61.269Zm0-7.591.536-.537L.536,53.14,0,53.677Zm0-7.591.536-.537L.536,45.549,0,46.086Zm0-7.591.536-.537L.536,37.957,0,38.495Zm0-7.591.536-.537L.536,30.366,0,30.9Zm0-7.591.536-.537L.536,22.775,0,23.312Zm0-7.592.536-.537L.536,15.183,0,15.721Zm0-7.591.536-.537L.536,7.591,0,8.129Zm0-7.591.536-.537L.536,0,0,.537Z" transform="translate(-16.402 -78.187)" fill="#b1cafe"/>
      </g>
    </g>
  </g>
</svg>
