<svg xmlns="http://www.w3.org/2000/svg" xmlns:xlink="http://www.w3.org/1999/xlink" width="82" height="82" viewBox="0 0 82 82">
  <defs>
    <clipPath id="clip-path">
      <path id="Union_16" data-name="Union 16" d="M0,82V0H82V67H67V82Z" transform="translate(82 82) rotate(180)" fill="#fff"/>
    </clipPath>
    <clipPath id="clip-path-2">
      <path id="Union_15" data-name="Union 15" d="M0,424V106H55V0H483V106H106V424Z" transform="translate(482.999 424) rotate(180)" fill="#fff"/>
    </clipPath>
    <clipPath id="clip-path-3">
      <rect id="Rectangle_176" data-name="Rectangle 176" width="357" height="327"/>
    </clipPath>
  </defs>
  <g id="icn_bottom-right" clip-path="url(#clip-path)">
    <g id="Mask_Group_42" data-name="Mask Group 42" transform="translate(-322 -263)" clip-path="url(#clip-path-2)">
      <g id="Mask_Group_41" data-name="Mask Group 41" transform="translate(48 18)" clip-path="url(#clip-path-3)">
        <path id="Union_1" data-name="Union 1" d="M.536,783.97,0,783.432,396.271,387.921l.536.537Zm0-7.591L0,775.841,396.271,380.329l.536.537Zm0-7.591L0,768.25,396.271,372.738l.536.537Zm0-7.591L0,760.659,396.271,365.147l.536.537Zm0-7.591L0,753.067,396.271,357.555l.536.537Zm0-7.592L0,745.475,396.271,349.964l.536.537Zm0-7.591L0,737.884,396.271,342.372l.536.537Zm0-7.591L0,730.293,396.271,334.781l.536.537Zm0-7.591L0,722.7,396.271,327.189l.536.537Zm0-7.591L0,715.11,396.271,319.6l.536.537Zm0-7.591L0,707.519,396.271,312.007l.536.537Zm0-7.591L0,699.927,396.271,304.415l.536.537Zm0-7.591L0,692.336,396.271,296.824l.536.537Zm0-7.591L0,684.745,396.271,289.233l.536.537Zm0-7.592L0,677.153,396.271,281.641l.536.537Zm0-7.591L0,669.561,396.271,274.049l.536.537Zm0-7.591L0,661.97,396.271,266.458l.536.537Zm0-7.591L0,654.379,396.271,258.867l.536.537Zm0-7.591L0,646.787,396.271,251.275l.536.537Zm0-7.591L0,639.2,396.271,243.684l.536.537Zm0-7.591L0,631.6,396.271,236.093l.536.537Zm0-7.591L0,624.013,396.271,228.5l.536.537Zm0-7.591L0,616.422,396.271,220.91l.536.537Zm0-7.592L0,608.83,396.271,213.319l.536.537Zm0-7.591L0,601.239,396.271,205.727l.536.537Zm0-7.591L0,593.647,396.271,198.135l.536.537Zm0-7.591L0,586.056,396.271,190.544l.536.537Zm0-7.591L0,578.465,396.271,182.953l.536.537Zm0-8.35L0,570.114,396.271,174.6l.536.537Zm0-7.591L0,562.523,396.271,167.011l.536.537Zm0-7.591L0,554.932,396.271,159.42l.536.537Zm0-7.592L0,547.34,396.271,151.828l.536.537Zm0-7.591L0,539.748,396.271,144.237l.536.537Zm0-7.591L0,532.157,396.271,136.645l.536.537Zm0-7.591L0,524.566,396.271,129.054l.536.537Zm0-7.591L0,516.974,396.271,121.462l.536.537Zm0-7.591L0,509.383,396.271,113.871l.536.537Zm0-7.591L0,501.792,396.271,106.28l.536.537Zm0-7.591L0,494.2,396.271,98.689l.536.537Zm0-7.591L0,486.609,396.271,91.1l.536.537Zm0-7.592L0,479.017,396.271,83.506l.536.537Zm0-7.591L0,471.426,396.271,75.914l.536.537Zm0-7.591L0,463.835,396.271,68.323l.536.537Zm0-7.591L0,456.243,396.271,60.731l.536.537Zm0-7.591L0,448.652,396.271,53.14l.536.537Zm0-7.591L0,441.061,396.271,45.549l.536.537Zm0-7.591L0,433.469,396.271,37.957l.536.537Zm0-7.591L0,425.878,396.271,30.366l.536.537Zm0-7.591L0,418.287,396.271,22.775l.536.537Zm0-7.592L0,410.694,396.271,15.183l.536.537Zm0-7.591L0,403.1,396.271,7.591l.536.537Zm0-7.591L0,395.512,396.271,0l.536.537Z" transform="translate(-23.405 -78.187)" fill="#b1cafe"/>
      </g>
    </g>
  </g>
</svg>
