<svg xmlns="http://www.w3.org/2000/svg" width="187.441" height="70.531" viewBox="0 0 187.441 70.531">
  <g id="justoffered-logo" transform="translate(0 -0.437)">
    <path id="Path_1" data-name="Path 1" d="M41.594,39.7a6.535,6.535,0,0,1-1.65,4.76,5.894,5.894,0,0,1-4.426,1.695,6.408,6.408,0,0,1-3.8-1.1,7.072,7.072,0,0,1-2.307-2.615L31.4,40.931a6.05,6.05,0,0,0,1.68,1.986,3.475,3.475,0,0,0,2.234.76A3.552,3.552,0,0,0,38.03,42.64a5.071,5.071,0,0,0,.906-3.4V25.45h2.658V39.7ZM58.679,45.9H56.225V43.735a5.735,5.735,0,0,1-4.936,2.424,6.187,6.187,0,0,1-4.7-1.635q-1.548-1.636-1.548-5.112V30.62h2.454v8.442q0,4.788,4,4.79a4.765,4.765,0,0,0,2.8-.862,5.743,5.743,0,0,0,1.927-2.44V30.62h2.454V45.9Zm11.856-5.7a8.107,8.107,0,0,0-2.41-.89Q66.69,39,65.278,38.594a5.636,5.636,0,0,1-2.425-1.373,3.343,3.343,0,0,1-.993-2.512A3.648,3.648,0,0,1,63.6,31.525a8.058,8.058,0,0,1,4.571-1.168,7.52,7.52,0,0,1,3.374.73,5.936,5.936,0,0,1,2.292,1.9l-1.723,1.6a5.1,5.1,0,0,0-4.381-1.927,5.008,5.008,0,0,0-2.293.5,1.553,1.553,0,0,0-.978,1.431,1.516,1.516,0,0,0,.993,1.373,10.624,10.624,0,0,0,2.41.818q1.416.321,2.832.76a5.481,5.481,0,0,1,2.41,1.489,4.161,4.161,0,0,1-.656,6.017,7.821,7.821,0,0,1-4.426,1.11,8.844,8.844,0,0,1-4.191-.978,5.993,5.993,0,0,1-2.673-2.614l1.957-1.374a4.818,4.818,0,0,0,2.118,1.928,6.99,6.99,0,0,0,3.2.73q3.1,0,3.1-2.1a1.747,1.747,0,0,0-.993-1.547m4.584-9.494h3.154V26.823h2.454v3.884h5.228v2.337H80.727v6.69a5.845,5.845,0,0,0,.613,3.124,2.256,2.256,0,0,0,2.015.906,4.437,4.437,0,0,0,2.746-1.08l1.11,1.81A5.51,5.51,0,0,1,82.918,46.1a4.2,4.2,0,0,1-3.447-1.46,6.583,6.583,0,0,1-1.2-4.264V33.044H75.119V30.707ZM93.27,41.354a7.6,7.6,0,0,0,10.807.014,7.86,7.86,0,0,0,2.176-5.695,7.75,7.75,0,0,0-2.234-5.7,7.563,7.563,0,0,0-10.764,0,7.771,7.771,0,0,0-2.22,5.695,7.757,7.757,0,0,0,2.235,5.681m-2-13.144a10.366,10.366,0,0,1,17.76,7.463,10.154,10.154,0,0,1-3.01,7.478,10.582,10.582,0,0,1-14.75.029,10.127,10.127,0,0,1-3.009-7.507,10.165,10.165,0,0,1,3.009-7.463m18.865,2.5h2.805v-.7a5.6,5.6,0,0,1,1.474-4.309,5.134,5.134,0,0,1,3.608-1.358,4.968,4.968,0,0,1,2.176.482,3.849,3.849,0,0,1,1.563,1.3L120.3,27.64a2.593,2.593,0,0,0-2.162-.963q-2.745,0-2.745,3.534v.5h4.7v2.337h-4.7V45.9h-2.453V33.044h-2.805V30.707Z" fill="#4a4a4a" fill-rule="evenodd"/>
    <path id="Path_2" data-name="Path 2" d="M120.034,30.707h2.805v-.7a5.6,5.6,0,0,1,1.475-4.309,5.13,5.13,0,0,1,3.607-1.358,4.968,4.968,0,0,1,2.176.482,3.849,3.849,0,0,1,1.563,1.3L130.2,27.64a2.593,2.593,0,0,0-2.162-.963q-2.745,0-2.745,3.534v.5h4.7v2.337h-4.7V45.9h-2.453V33.044h-2.805V30.707Zm14.531,3.068a5.019,5.019,0,0,0-1.592,3.1h9.551a4.434,4.434,0,0,0-1.329-3.14,4.594,4.594,0,0,0-3.256-1.125,4.856,4.856,0,0,0-3.374,1.169Zm9.975,9.23a6.856,6.856,0,0,1-6.076,3.154,8.087,8.087,0,0,1-5.87-2.147,7.614,7.614,0,0,1-2.22-5.739,8.109,8.109,0,0,1,2.03-5.7,7.347,7.347,0,0,1,5.71-2.22,6.978,6.978,0,0,1,5.024,1.9,6.59,6.59,0,0,1,1.986,4.994,10.776,10.776,0,0,1-.146,1.84H133a4.635,4.635,0,0,0,1.636,3.506,5.94,5.94,0,0,0,3.914,1.255,5.219,5.219,0,0,0,2.527-.642,5.322,5.322,0,0,0,1.884-1.665L144.54,43Zm3.3-12.3h2.453v1.169a2.35,2.35,0,0,1,1.256-1.125,4.82,4.82,0,0,1,1.87-.365,3.71,3.71,0,0,1,3.1,1.373l-1.549,1.694a2.092,2.092,0,0,0-1.81-.76,2.6,2.6,0,0,0-1.8.731,3.545,3.545,0,0,0-1.067,1.9V45.9h-2.453V30.707Zm12.806,3.068a5.023,5.023,0,0,0-1.591,3.1h9.55a4.437,4.437,0,0,0-1.328-3.14,4.6,4.6,0,0,0-3.257-1.125A4.857,4.857,0,0,0,160.644,33.775Zm9.975,9.23a6.854,6.854,0,0,1-6.075,3.154,8.089,8.089,0,0,1-5.871-2.147,7.614,7.614,0,0,1-2.22-5.739,8.113,8.113,0,0,1,2.03-5.7,7.347,7.347,0,0,1,5.71-2.22,6.978,6.978,0,0,1,5.024,1.9A6.591,6.591,0,0,1,171.2,37.25a10.878,10.878,0,0,1-.146,1.84H159.082a4.634,4.634,0,0,0,1.635,3.506,5.943,5.943,0,0,0,3.915,1.255,5.218,5.218,0,0,0,2.526-.642,5.3,5.3,0,0,0,1.884-1.665L170.619,43Zm12.689-.088a5.76,5.76,0,0,0,1.68-1.986V34.8a4.813,4.813,0,0,0-4.235-2.132,5.215,5.215,0,0,0-3.813,1.548,5.464,5.464,0,0,0-1.562,4.06,5.56,5.56,0,0,0,1.46,4.045,5.021,5.021,0,0,0,3.768,1.5,4.246,4.246,0,0,0,2.7-.9Zm1.68,1.168a4.329,4.329,0,0,1-1.753,1.431,6.455,6.455,0,0,1-2.979.643,7.241,7.241,0,0,1-5.418-2.1,7.829,7.829,0,0,1-2.06-5.725,7.8,7.8,0,0,1,2.22-5.74,7.4,7.4,0,0,1,5.463-2.234,6.157,6.157,0,0,1,4.527,1.49V24.574h2.453V45.9h-2.453v-1.81Z" fill="#4a4a4a" fill-rule="evenodd"/>
    <path id="Path_3" data-name="Path 3" d="M31.577,58.25a3.14,3.14,0,0,0,1.616,1.66,3.176,3.176,0,0,0,2.537.058,3.244,3.244,0,0,0,1.746-4.038,2.889,2.889,0,0,0-.165-.373,3.191,3.191,0,0,0-4.036-1.439,3.152,3.152,0,0,0-1.7,4.131m5.132-46.757A3.045,3.045,0,0,0,34.763,14.6a3.43,3.43,0,0,0,.493,1.439,3.009,3.009,0,0,0,3.966,1.207,2.863,2.863,0,0,0,1.805-2.3,3.612,3.612,0,0,0-1.573-3.4,2.759,2.759,0,0,0-2.745-.063m12.134,5.082a3.338,3.338,0,0,0-1.65,1.66,3.116,3.116,0,0,0,.079,2.57,2.808,2.808,0,0,0,2.053,1.7,3.623,3.623,0,0,0,3.439-1.248,2.915,2.915,0,0,0,.25-3.125,3.21,3.21,0,0,0-1.664-1.614,3.019,3.019,0,0,0-2.507.06M14.107,37.8a2.943,2.943,0,0,0-1.873,2.557,3.572,3.572,0,0,0,1.276,2.92,2.943,2.943,0,0,0,3.214.278,3.217,3.217,0,0,0,1.584-1.612,3.139,3.139,0,0,0-.017-2.515A3.19,3.19,0,0,0,16.624,37.8a3.07,3.07,0,0,0-2.517,0m.931-13.134a3.286,3.286,0,0,0-1.558,1.684,3.147,3.147,0,0,0,.1,2.529,2.837,2.837,0,0,0,2.252,1.768,3.507,3.507,0,0,0,1.9-.31,2.975,2.975,0,0,0,1.576-4.141,3.321,3.321,0,0,0-1.718-1.632,2.99,2.99,0,0,0-2.55.1m35.5,29.515a2.87,2.87,0,0,0-1.2-2.726,3.5,3.5,0,0,0-1.808-.587,3.142,3.142,0,0,0-1.889,5.771,3.485,3.485,0,0,0,1.823.447,3.01,3.01,0,0,0,3.074-2.905M25.454,51.83a2.81,2.81,0,0,0-1.305-2.456,3.506,3.506,0,0,0-1.918-.508,3.14,3.14,0,0,0-1.457,5.907,3.492,3.492,0,0,0,1.69.322,3.034,3.034,0,0,0,2.99-3.266M23.466,14.751a3,3,0,0,0-1.583,3.07,3.45,3.45,0,0,0,.549,1.4,3.024,3.024,0,0,0,4.278.922,2.872,2.872,0,0,0,1.48-2.417,3.6,3.6,0,0,0-1.678-3.151,2.86,2.86,0,0,0-3.046.172" fill="#ff4b39" fill-rule="evenodd"/>
    <g id="Group_478" data-name="Group 478" transform="translate(23.655)">
      <path id="Path_4" data-name="Path 4" d="M3.287.79A4.35,4.35,0,0,0,.4,5.026a4.883,4.883,0,0,0,.932,2.56,4.281,4.281,0,0,0,5.432,1.45A4.6,4.6,0,0,0,9.042,6.655,4.4,4.4,0,0,0,9.02,3.086,4.665,4.665,0,0,0,6.7.829,4.1,4.1,0,0,0,3.287.79" fill="#ff4b39" fill-rule="evenodd"/>
    </g>
    <g id="Group_479" data-name="Group 479" transform="translate(39.218 61.63)">
      <path id="Path_5" data-name="Path 5" d="M9.129,4.946A4.569,4.569,0,0,0,7.773,1.634,4.506,4.506,0,0,0,4.8.349,4.183,4.183,0,0,0,.832,2.408,4.94,4.94,0,0,0,.2,4.788a4.938,4.938,0,0,0,.54,2.338,4.154,4.154,0,0,0,3.8,2.21A4.39,4.39,0,0,0,7.867,7.941,4.481,4.481,0,0,0,9.129,4.946" fill="#ff4b39" fill-rule="evenodd"/>
    </g>
    <path id="Path_6" data-name="Path 6" d="M9.951,11.313a4.235,4.235,0,0,0-2.546,4.013,4.892,4.892,0,0,0,.85,2.5,4.284,4.284,0,0,0,5.652,1.51,4.671,4.671,0,0,0,2.23-2.425,4.317,4.317,0,0,0-.191-3.632,4.652,4.652,0,0,0-2.438-2.18,4.277,4.277,0,0,0-3.557.211M46.234,2.282a4.889,4.889,0,0,0-2.314,2.37,4.207,4.207,0,0,0,.142,3.584,4.709,4.709,0,0,0,2.366,2.227,4.29,4.29,0,0,0,3.541-.05A4.167,4.167,0,0,0,52.619,6.8a5.055,5.055,0,0,0-2.231-4.4,4.072,4.072,0,0,0-4.154-.12m10.03,55.362a4.07,4.07,0,0,0,2.88,2.744A5.072,5.072,0,0,0,63.872,59.1a4.176,4.176,0,0,0,.875-4.445,4.1,4.1,0,0,0-2.985-2.883,5.065,5.065,0,0,0-4.668,1.337,4.208,4.208,0,0,0-.83,4.53m-36.2,8.982a4.1,4.1,0,0,0,2.99,2.775A5.071,5.071,0,0,0,27.7,68.069a4.165,4.165,0,0,0,.85-4.417,4.12,4.12,0,0,0-3.05-2.9,5.068,5.068,0,0,0-4.652,1.381,4.187,4.187,0,0,0-.784,4.495M5.187,54.325A4.076,4.076,0,0,0,8.367,56.9a5.067,5.067,0,0,0,4.559-1.741,4.18,4.18,0,0,0,.48-4.478,4.136,4.136,0,0,0-3.354-2.646,5.051,5.051,0,0,0-4.323,1.644,4.226,4.226,0,0,0-.542,4.643M60.86,13.731a4.6,4.6,0,0,0-2.353,2.35,4.39,4.39,0,0,0,.135,3.657,4.126,4.126,0,0,0,3.4,2.53,5.055,5.055,0,0,0,4.388-1.862,4.183,4.183,0,0,0,.338-4.525,4.529,4.529,0,0,0-2.338-2.252,4.442,4.442,0,0,0-3.57.1M.446,35.3a4.08,4.08,0,0,0,3.18,2.579,4.936,4.936,0,0,0,2.483-.28A4.924,4.924,0,0,0,8.185,36.14a4.178,4.178,0,0,0,.479-4.478,4.135,4.135,0,0,0-3.353-2.646,4.925,4.925,0,0,0-2.221.247,4.928,4.928,0,0,0-2.1,1.4A4.226,4.226,0,0,0,.446,35.3" fill="#ff4b39" fill-rule="evenodd"/>
  </g>
</svg>
