<svg xmlns="http://www.w3.org/2000/svg" xmlns:xlink="http://www.w3.org/1999/xlink" width="356" height="328" viewBox="0 0 356 328">
  <defs>
    <clipPath id="clip-path">
      <rect id="Rectangle_38" data-name="Rectangle 38" width="356" height="328" transform="translate(0.496)"/>
    </clipPath>
  </defs>
  <g id="Mask_Group_5" data-name="Mask Group 5" transform="translate(-0.496)" clip-path="url(#clip-path)">
    <path id="Union_1" data-name="Union 1" d="M395.858,783.153l.536-.537L.536,387.517,0,388.053Zm0-7.583.536-.537L.536,379.933,0,380.47Zm0-7.583.536-.537L.536,372.35,0,372.887Zm0-7.583.536-.537L.536,364.766,0,365.3Zm0-7.584.536-.537L.536,357.183,0,357.72Zm0-7.584.536-.537L.536,349.6,0,350.136Zm0-7.583.536-.537L.536,342.015,0,342.552Zm0-7.583.536-.537L.536,334.432,0,334.969Zm0-7.584.536-.537L.536,326.849,0,327.385Zm0-7.583.536-.537L.536,319.265,0,319.8Zm0-7.583.536-.537L.536,311.682,0,312.219Zm0-7.583.536-.537L.536,304.1,0,304.635Zm0-7.583.536-.537L.536,296.515,0,297.052Zm0-7.583.536-.537L.536,288.932,0,289.468Zm0-7.584.536-.537L.536,281.348,0,281.885Zm0-7.583.536-.537L.536,273.764,0,274.3Zm0-7.583.536-.537L.536,266.181,0,266.717Zm0-7.583.536-.537L.536,258.6,0,259.134Zm0-7.583.536-.537L.536,251.014,0,251.55Zm0-7.583.536-.537L.536,243.43,0,243.967Zm0-7.583.536-.537L.536,235.847,0,236.384Zm0-7.583.536-.537L.536,228.264,0,228.8Zm0-7.583.536-.537L.536,220.68,0,221.217Zm0-7.584.536-.537L.536,213.1,0,213.633Zm0-7.583.536-.537L.536,205.513,0,206.049Zm0-7.583.536-.537L.536,197.929,0,198.466Zm0-7.583.536-.537L.536,190.346,0,190.882Zm0-7.583.536-.537L.536,182.762,0,183.3Zm0-8.342.536-.537L.536,174.421,0,174.957Zm0-7.583.536-.537L.536,166.837,0,167.374Zm0-7.583.536-.537L.536,159.254,0,159.791Zm0-7.584.536-.537L.536,151.67,0,152.207Zm0-7.583.536-.537L.536,144.086,0,144.623Zm0-7.583.536-.537L.536,136.5,0,137.04Zm0-7.583.536-.537L.536,128.919,0,129.456Zm0-7.583.536-.537L.536,121.336,0,121.873Zm0-7.583.536-.537L.536,113.753,0,114.289Zm0-7.584.536-.537L.536,106.169,0,106.706Zm0-7.583.536-.537L.536,98.586,0,99.122Zm0-7.583.536-.537L.536,91,0,91.539Zm0-7.584.536-.537L.536,83.419,0,83.956Zm0-7.584.536-.537L.536,75.835,0,76.372Zm0-7.583.536-.537L.536,68.251,0,68.788Zm0-7.583.536-.537L.536,60.668,0,61.2Zm0-7.583.536-.537L.536,53.085,0,53.621Zm0-7.583.536-.537L.536,45.5,0,46.038Zm0-7.583.536-.537L.536,37.918,0,38.454Zm0-7.583.536-.537L.536,30.334,0,30.871Zm0-7.583.536-.537L.536,22.751,0,23.288Zm0-7.584.536-.537L.536,15.167,0,15.7Zm0-7.583.536-.537L.536,7.583,0,8.12Zm0-7.583.536-.537L.536,0,0,.537Z" transform="translate(373.51 404.769) rotate(180)" fill="#ffe5a0"/>
  </g>
</svg>
