<svg xmlns="http://www.w3.org/2000/svg" xmlns:xlink="http://www.w3.org/1999/xlink" width="554" height="219.546" viewBox="0 0 554 219.546">
  <defs>
    <clipPath id="clip-path">
      <rect id="Rectangle_360" data-name="Rectangle 360" width="277" height="43" transform="translate(-0.2)" fill="#fff"/>
    </clipPath>
    <clipPath id="clip-path-2">
      <rect id="Rectangle_35" data-name="Rectangle 35" width="364" height="359" transform="translate(-0.2)"/>
    </clipPath>
    <clipPath id="clip-path-4">
      <rect id="Rectangle_367" data-name="Rectangle 367" width="277" height="43" fill="#fff"/>
    </clipPath>
    <clipPath id="clip-path-5">
      <rect id="Rectangle_35-3" data-name="Rectangle 35" width="364" height="359" transform="translate(0.455)"/>
    </clipPath>
    <linearGradient id="linear-gradient" x1="1" y1="0.304" x2="0.044" y2="0.614" gradientUnits="objectBoundingBox">
      <stop offset="0" stop-color="#fcd0c0"/>
      <stop offset="1" stop-color="#f4ffff"/>
    </linearGradient>
    <linearGradient id="linear-gradient-2" x1="-65.408" y1="23.095" x2="-66.433" y2="23.095" gradientUnits="objectBoundingBox">
      <stop offset="0" stop-color="#cfe3ff"/>
      <stop offset="1" stop-color="#f4ffff"/>
    </linearGradient>
  </defs>
  <g id="Group_920" data-name="Group 920" transform="translate(-201 -5613.041)">
    <g id="Group_909" data-name="Group 909" transform="translate(0 -41.413)">
      <g id="Group_897" data-name="Group 897" transform="translate(201.2 5831)">
        <g id="Mask_Group_60" data-name="Mask Group 60" transform="translate(0)" clip-path="url(#clip-path)">
          <g id="Mask_Group_3" data-name="Mask Group 3" clip-path="url(#clip-path-2)">
            <path id="Union_1" data-name="Union 1" d="M405.112,0l.548.589L.548,434.47,0,433.88Zm0,8.327.548.589L.548,442.8,0,442.2Zm0,8.327.548.589L.548,451.125,0,450.536Zm0,8.327.548.589L.548,459.453,0,458.864Zm0,8.327.548.589L.548,467.78,0,467.191Zm0,8.328.548.589L.548,476.109,0,475.52Zm0,8.327.548.589L.548,484.439,0,483.848Zm0,8.327.548.589L.548,492.765,0,492.176Zm0,8.327.548.589L.548,501.092,0,500.5Zm0,8.327.548.589L.548,509.42,0,508.83Zm0,8.327.548.589L.548,517.748,0,517.159Zm0,8.327.548.589L.548,526.075,0,525.486Zm0,8.327.548.589L.548,534.4,0,533.814Zm0,8.327.548.589L.548,542.731,0,542.142Zm0,8.328.548.589L.548,551.059,0,550.469Zm0,8.327.548.589L.548,559.387,0,558.8Zm0,8.327.548.589L.548,567.716,0,567.125Zm0,8.327.548.589L.548,576.04,0,575.454Zm0,8.327.548.589L.548,584.37,0,583.781Zm0,8.327.548.589L.548,592.7,0,592.109Zm0,8.327.548.589L.548,601.026,0,600.437Zm0,8.327.548.589L.548,609.354,0,608.765Zm0,8.327.548.589L.548,617.682,0,617.092Zm0,8.328.548.589L.548,626.01,0,625.42Zm0,8.327.548.589L.548,634.338,0,633.749Zm0,8.327.548.589L.548,642.665,0,642.08Zm0,8.327.548.589L.548,650.994,0,650.4Zm0,8.327.548.589L.548,659.321,0,658.732Zm0,9.16.548.589L.548,668.481,0,667.892Zm0,8.327.548.589L.548,676.81,0,676.22Zm0,8.327.548.589L.548,685.137,0,684.548Zm0,8.328.548.589L.548,693.465,0,692.871Zm0,8.327.548.589L.548,701.793,0,701.208Zm0,8.327.548.589L.548,710.122,0,709.531Zm0,8.327.548.589L.548,718.449,0,717.86Zm0,8.327.548.589L.548,726.776,0,726.187Zm0,8.327.548.589L.548,735.106,0,734.515Zm0,8.327.548.589L.548,743.432,0,742.843Zm0,8.327.548.589L.548,751.76,0,751.171Zm0,8.327.548.589L.548,760.087,0,759.5Zm0,8.329.548.589L.548,768.416,0,767.827Zm0,8.327.548.589L.548,776.744,0,776.155Zm0,8.327.548.589L.548,785.072,0,784.482Zm0,8.327.548.589L.548,793.4,0,792.809Zm0,8.327.548.589L.548,801.727,0,801.138Zm0,8.327.548.589L.548,810.055,0,809.466Zm0,8.327.548.589L.548,818.382,0,817.793Zm0,8.327.548.589L.548,826.706,0,826.12Zm0,8.327.548.589L.548,835.044,0,834.449Zm0,8.328.548.589L.548,843.365,0,842.776Zm0,8.327.548.589L.548,851.694,0,851.1Zm0,8.327.548.589L.548,860.022,0,859.433Z" transform="translate(-17.123 -415.56)" fill="#b1cafe"/>
          </g>
          <g id="Group_894" data-name="Group 894" transform="translate(0 0)">
            <g id="Mask_Group_3-2" data-name="Mask Group 3" clip-path="url(#clip-path-2)">
              <path id="Union_1-2" data-name="Union 1" d="M405.112,0l.548.589L.548,434.47,0,433.88Zm0,8.327.548.589L.548,442.8,0,442.2Zm0,8.327.548.589L.548,451.125,0,450.536Zm0,8.327.548.589L.548,459.453,0,458.864Zm0,8.327.548.589L.548,467.78,0,467.191Zm0,8.328.548.589L.548,476.109,0,475.52Zm0,8.327.548.589L.548,484.439,0,483.848Zm0,8.327.548.589L.548,492.765,0,492.176Zm0,8.327.548.589L.548,501.092,0,500.5Zm0,8.327.548.589L.548,509.42,0,508.83Zm0,8.327.548.589L.548,517.748,0,517.159Zm0,8.327.548.589L.548,526.075,0,525.486Zm0,8.327.548.589L.548,534.4,0,533.814Zm0,8.327.548.589L.548,542.731,0,542.142Zm0,8.328.548.589L.548,551.059,0,550.469Zm0,8.327.548.589L.548,559.387,0,558.8Zm0,8.327.548.589L.548,567.716,0,567.125Zm0,8.327.548.589L.548,576.04,0,575.454Zm0,8.327.548.589L.548,584.37,0,583.781Zm0,8.327.548.589L.548,592.7,0,592.109Zm0,8.327.548.589L.548,601.026,0,600.437Zm0,8.327.548.589L.548,609.354,0,608.765Zm0,8.327.548.589L.548,617.682,0,617.092Zm0,8.328.548.589L.548,626.01,0,625.42Zm0,8.327.548.589L.548,634.338,0,633.749Zm0,8.327.548.589L.548,642.665,0,642.08Zm0,8.327.548.589L.548,650.994,0,650.4Zm0,8.327.548.589L.548,659.321,0,658.732Zm0,9.16.548.589L.548,668.481,0,667.892Zm0,8.327.548.589L.548,676.81,0,676.22Zm0,8.327.548.589L.548,685.137,0,684.548Zm0,8.328.548.589L.548,693.465,0,692.871Zm0,8.327.548.589L.548,701.793,0,701.208Zm0,8.327.548.589L.548,710.122,0,709.531Zm0,8.327.548.589L.548,718.449,0,717.86Zm0,8.327.548.589L.548,726.776,0,726.187Zm0,8.327.548.589L.548,735.106,0,734.515Zm0,8.327.548.589L.548,743.432,0,742.843Zm0,8.327.548.589L.548,751.76,0,751.171Zm0,8.327.548.589L.548,760.087,0,759.5Zm0,8.329.548.589L.548,768.416,0,767.827Zm0,8.327.548.589L.548,776.744,0,776.155Zm0,8.327.548.589L.548,785.072,0,784.482Zm0,8.327.548.589L.548,793.4,0,792.809Zm0,8.327.548.589L.548,801.727,0,801.138Zm0,8.327.548.589L.548,810.055,0,809.466Zm0,8.327.548.589L.548,818.382,0,817.793Zm0,8.327.548.589L.548,826.706,0,826.12Zm0,8.327.548.589L.548,835.044,0,834.449Zm0,8.328.548.589L.548,843.365,0,842.776Zm0,8.327.548.589L.548,851.694,0,851.1Zm0,8.327.548.589L.548,860.022,0,859.433Z" transform="translate(-17.123 -415.56)" fill="#fce3a4"/>
            </g>
          </g>
        </g>
        <g id="Mask_Group_62" data-name="Mask Group 62" transform="translate(276.8)" clip-path="url(#clip-path-4)">
          <g id="Mask_Group_3-3" data-name="Mask Group 3" transform="translate(-87.455)" clip-path="url(#clip-path-5)">
            <path id="Union_1-3" data-name="Union 1" d="M.548,0,0,.589,405.112,434.47l.548-.589Zm0,8.327L0,8.916,405.112,442.8l.548-.593Zm0,8.327L0,17.244,405.112,451.125l.548-.589Zm0,8.327L0,25.571,405.112,459.453l.548-.589Zm0,8.327L0,33.9,405.112,467.78l.548-.589Zm0,8.328L0,42.227,405.112,476.109l.548-.589Zm0,8.327L0,50.555,405.112,484.439l.548-.591Zm0,8.327L0,58.882,405.112,492.765l.548-.589Zm0,8.327L0,67.209,405.112,501.092l.548-.589Zm0,8.327L0,75.537,405.112,509.42l.548-.59Zm0,8.327L0,83.864,405.112,517.748l.548-.589Zm0,8.327L0,92.192,405.112,526.075l.548-.589Zm0,8.327L0,100.519,405.112,534.4l.548-.59Zm0,8.327L0,108.846,405.112,542.731l.548-.589Zm0,8.328L0,117.175,405.112,551.059l.548-.589Zm0,8.327L0,125.5,405.112,559.387l.548-.589Zm0,8.327L0,133.83,405.112,567.716l.548-.59Zm0,8.327L0,142.157,405.112,576.04l.548-.586Zm0,8.327L0,150.484,405.112,584.37l.548-.589Zm0,8.327L0,158.812,405.112,592.7l.548-.59Zm0,8.327L0,167.139,405.112,601.026l.548-.589Zm0,8.327L0,175.467,405.112,609.354l.548-.589Zm0,8.327L0,183.794,405.112,617.682l.548-.59Zm0,8.328L0,192.123,405.112,626.01l.548-.589Zm0,8.327L0,200.45,405.112,634.338l.548-.589Zm0,8.327L0,208.777,405.112,642.665l.548-.586Zm0,8.327L0,217.1,405.112,650.994l.548-.59Zm0,8.327L0,225.432,405.112,659.321l.548-.589Zm0,9.16L0,234.592,405.112,668.481l.548-.589Zm0,8.327L0,242.92,405.112,676.81l.548-.59Zm0,8.327L0,251.247l405.112,433.89.548-.589Zm0,8.328L0,259.576,405.112,693.465l.548-.594Zm0,8.327L0,267.9l405.112,433.89.548-.585Zm0,8.327L0,276.23,405.112,710.122l.548-.59Zm0,8.327L0,284.558,405.112,718.449l.548-.589Zm0,8.327L0,292.885,405.112,726.776l.548-.589Zm0,8.327L0,301.213,405.112,735.106l.548-.591Zm0,8.327L0,309.54,405.112,743.432l.548-.589Zm0,8.327L0,317.867,405.112,751.76l.548-.589Zm0,8.327L0,326.195,405.112,760.087l.548-.589Zm0,8.329L0,334.523,405.112,768.416l.548-.589Zm0,8.327L0,342.851,405.112,776.744l.548-.589Zm0,8.327L0,351.178,405.112,785.072l.548-.589Zm0,8.327L0,359.505,405.112,793.4l.548-.591Zm0,8.327L0,367.833,405.112,801.727l.548-.589Zm0,8.327L0,376.16,405.112,810.055l.548-.589Zm0,8.327L0,384.488,405.112,818.382l.548-.589Zm0,8.327L0,392.815,405.112,826.706l.548-.586Zm0,8.327L0,401.142l405.112,433.9.548-.595Zm0,8.328L0,409.471,405.112,843.365l.548-.589Zm0,8.327L0,417.8l405.112,433.9.548-.589Zm0,8.327L0,426.126l405.112,433.9.548-.589Z" transform="translate(-24.282 -415.56)" fill="#b1cafe"/>
          </g>
          <g id="Group_896" data-name="Group 896" transform="translate(-87.455)">
            <g id="Mask_Group_3-4" data-name="Mask Group 3" clip-path="url(#clip-path-5)">
              <path id="Union_1-4" data-name="Union 1" d="M.548,0,0,.589,405.112,434.47l.548-.589Zm0,8.327L0,8.916,405.112,442.8l.548-.593Zm0,8.327L0,17.244,405.112,451.125l.548-.589Zm0,8.327L0,25.571,405.112,459.453l.548-.589Zm0,8.327L0,33.9,405.112,467.78l.548-.589Zm0,8.328L0,42.227,405.112,476.109l.548-.589Zm0,8.327L0,50.555,405.112,484.439l.548-.591Zm0,8.327L0,58.882,405.112,492.765l.548-.589Zm0,8.327L0,67.209,405.112,501.092l.548-.589Zm0,8.327L0,75.537,405.112,509.42l.548-.59Zm0,8.327L0,83.864,405.112,517.748l.548-.589Zm0,8.327L0,92.192,405.112,526.075l.548-.589Zm0,8.327L0,100.519,405.112,534.4l.548-.59Zm0,8.327L0,108.846,405.112,542.731l.548-.589Zm0,8.328L0,117.175,405.112,551.059l.548-.589Zm0,8.327L0,125.5,405.112,559.387l.548-.589Zm0,8.327L0,133.83,405.112,567.716l.548-.59Zm0,8.327L0,142.157,405.112,576.04l.548-.586Zm0,8.327L0,150.484,405.112,584.37l.548-.589Zm0,8.327L0,158.812,405.112,592.7l.548-.59Zm0,8.327L0,167.139,405.112,601.026l.548-.589Zm0,8.327L0,175.467,405.112,609.354l.548-.589Zm0,8.327L0,183.794,405.112,617.682l.548-.59Zm0,8.328L0,192.123,405.112,626.01l.548-.589Zm0,8.327L0,200.45,405.112,634.338l.548-.589Zm0,8.327L0,208.777,405.112,642.665l.548-.586Zm0,8.327L0,217.1,405.112,650.994l.548-.59Zm0,8.327L0,225.432,405.112,659.321l.548-.589Zm0,9.16L0,234.592,405.112,668.481l.548-.589Zm0,8.327L0,242.92,405.112,676.81l.548-.59Zm0,8.327L0,251.247l405.112,433.89.548-.589Zm0,8.328L0,259.576,405.112,693.465l.548-.594Zm0,8.327L0,267.9l405.112,433.89.548-.585Zm0,8.327L0,276.23,405.112,710.122l.548-.59Zm0,8.327L0,284.558,405.112,718.449l.548-.589Zm0,8.327L0,292.885,405.112,726.776l.548-.589Zm0,8.327L0,301.213,405.112,735.106l.548-.591Zm0,8.327L0,309.54,405.112,743.432l.548-.589Zm0,8.327L0,317.867,405.112,751.76l.548-.589Zm0,8.327L0,326.195,405.112,760.087l.548-.589Zm0,8.329L0,334.523,405.112,768.416l.548-.589Zm0,8.327L0,342.851,405.112,776.744l.548-.589Zm0,8.327L0,351.178,405.112,785.072l.548-.589Zm0,8.327L0,359.505,405.112,793.4l.548-.591Zm0,8.327L0,367.833,405.112,801.727l.548-.589Zm0,8.327L0,376.16,405.112,810.055l.548-.589Zm0,8.327L0,384.488,405.112,818.382l.548-.589Zm0,8.327L0,392.815,405.112,826.706l.548-.586Zm0,8.327L0,401.142l405.112,433.9.548-.595Zm0,8.328L0,409.471,405.112,843.365l.548-.589Zm0,8.327L0,417.8l405.112,433.9.548-.589Zm0,8.327L0,426.126l405.112,433.9.548-.589Z" transform="translate(-24.282 -415.56)" fill="#fdcdc7"/>
            </g>
          </g>
        </g>
      </g>
    </g>
    <g id="Group_890" data-name="Group 890" transform="matrix(-0.966, 0.259, -0.259, -0.966, 606.311, 5743.795)">
      <path id="Path_1303" data-name="Path 1303" d="M17.146,116.039c.4.457.8.887,1.205,1.351L82.783,1.163c-.6-.119-1.2-.212-1.788-.318L17.146,116.039Zm3.748,3.98c.417.411.848.828,1.272,1.232L88.074,2.355c-.576-.152-1.146-.3-1.715-.43L20.894,120.019Zm8.119,6.848c.464.331.934.676,1.411,1L98.055,5.838c-.517-.225-1.046-.437-1.576-.669ZM13.623,111.622c.377.51.742,1.007,1.126,1.5L77.253.355C76.631.3,76.015.242,75.379.2L13.616,111.622Zm19.735,18.139c.5.311.987.6,1.477.894L102.763,8.11c-.51-.272-1.02-.53-1.536-.795L33.358,129.754Zm-8.5-6.139c.444.371.887.735,1.344,1.106L93.167,3.9c-.55-.185-1.093-.364-1.649-.543L24.861,123.622Zm-14.5-16.855c.344.55.689,1.1,1.04,1.642L71.485.017C70.842,0,70.193,0,69.538,0L10.358,106.767ZM.775,59.541c-.232,1.483-.4,2.993-.53,4.5L27.928,14.07c-1.192.907-2.371,1.854-3.51,2.841L.781,59.548ZM4.212,46.1,14.828,26.938a71.6,71.6,0,0,0-6.046,9.179,70.747,70.747,0,0,0-4.57,9.994ZM0,71.674c.026,1.1.073,2.166.146,3.252L37.126,8.216q-1.44.775-2.841,1.6L0,71.674ZM2.51,88.661c.212.775.437,1.556.676,2.325l49.153-88.7c-.768.205-1.543.424-2.311.662ZM.834,80.926c.146.9.311,1.788.477,2.669L45.093,4.613c-.841.325-1.682.656-2.517,1.013L.834,80.926Zm3.9,14.49c.252.676.536,1.358.815,2.033L59.081.885c-.722.106-1.444.238-2.159.384L4.729,95.416Zm2.642,5.974c.3.609.616,1.238.94,1.841L65.445.163c-.682.033-1.364.093-2.053.159Zm40.166,35.054c.55.192,1.1.364,1.656.543L115.744,16.931c-.444-.371-.887-.748-1.325-1.119L47.551,136.443Zm48.365-1.225c.854-.344,1.7-.7,2.543-1.073L139.44,60.223c-.126-.914-.285-1.834-.45-2.729l-43.08,77.736ZM81.8,139.165c.728-.126,1.457-.265,2.179-.4l51.7-93.273c-.252-.675-.523-1.371-.8-2.046l-53.067,95.73Zm6.795-1.517c.775-.205,1.556-.437,2.325-.675l46.935-84.637c-.205-.781-.437-1.576-.669-2.344L88.6,137.655Zm15.391-6.238c.974-.543,1.94-1.093,2.881-1.689l33.272-60.027c0-1.113-.04-2.238-.1-3.344l-36.06,65.061Zm-66.081.927c.51.258,1.026.53,1.53.768L107.287,10.713c-.49-.311-.974-.6-1.47-.887L37.908,132.337Zm75.491-7.152c1.258-.987,2.483-2.04,3.676-3.1l21.994-39.7c.278-1.576.51-3.159.682-4.742Zm20.623-26.444-5.762,10.4c1.086-1.636,2.126-3.325,3.1-5.08s1.854-3.523,2.662-5.311ZM52.663,137.986c.57.139,1.152.285,1.715.411L119.691,20.58c-.411-.411-.834-.821-1.265-1.225L52.67,137.986Zm5.325,1.139c.6.106,1.192.2,1.795.291L123.4,24.627c-.384-.464-.788-.921-1.179-1.364ZM42.63,134.569c.53.219,1.066.444,1.6.656L111.611,13.647c-.464-.344-.934-.675-1.4-1L42.623,134.562Zm32.775,5.384c.689-.053,1.378-.113,2.053-.185L133.075,39.422c-.3-.609-.6-1.232-.927-1.841L75.405,139.953Zm-6.08.205c.656.013,1.311,0,1.974,0L130.135,33.991c-.338-.563-.669-1.126-1.026-1.669L69.326,140.165Zm-5.788-.3c.623.066,1.245.119,1.874.159L126.9,29.071c-.364-.5-.742-1-1.119-1.51L63.531,139.854Z" transform="matrix(-0.259, 0.966, -0.966, -0.259, 171.66, 36.277)" fill="url(#linear-gradient)"/>
      <path id="Path_1304" data-name="Path 1304" d="M8.576,42.815,7.371,41.689,40.617,6.033l1.205,1.126ZM45.365,12.292,44.16,11.166l-31.424,33.7,1.205,1.126Zm2.974,5.755-1.205-1.126-28.444,30.5,1.205,1.126,28.444-30.5Zm.854,8.013-1.205-1.126L26.735,47.723l1.205,1.126L49.193,26.06ZM47.656,36.643l-1.205-1.126-9.258,9.934L38.4,46.577l9.265-9.934ZM36.458,3.987,35.252,2.861,3.828,36.564l1.205,1.126ZM30.51,1.424,29.305.3.861,30.8l1.205,1.126Zm-8.053-.3L21.252,0,0,22.789l1.205,1.126ZM2.748,13.331,12.007,3.4,10.8,2.272,1.543,12.206Z" transform="translate(170.168 34.861)" fill="url(#linear-gradient-2)"/>
    </g>
  </g>
</svg>
