<svg xmlns="http://www.w3.org/2000/svg" width="90" height="90" viewBox="0 0 90 90">
  <g id="Group_1" data-name="Group 1" transform="translate(-813 -496)">
    <rect id="Rectangle_122" data-name="Rectangle 122" width="90" height="90" transform="translate(813 496)" fill="none"/>
    <g id="Group_117" data-name="Group 117" transform="translate(-323.001 -2688.346)">
      <g id="Group_108" data-name="Group 108" transform="translate(-8 62.344)">
        <g id="upload-cloud" transform="translate(1173.945 3167.323)">
          <path id="Path_13" data-name="Path 13" d="M37.628,26.814,22.814,12,8,26.814" transform="translate(-8 -12)" fill="none" stroke="#6a4a98" stroke-linecap="round" stroke-linejoin="round" stroke-width="3"/>
          <line id="Line_13" data-name="Line 13" y2="33" transform="translate(15.055 0.332)" fill="none" stroke="#6a4a98" stroke-linecap="round" stroke-linejoin="round" stroke-width="3"/>
          <path id="Path_15" data-name="Path 15" d="M37.628,26.814,22.814,12,8,26.814" transform="translate(-8 -12)" fill="none" stroke="#6a4a98" stroke-linecap="round" stroke-linejoin="round" stroke-width="3"/>
        </g>
        <path id="Path_16" data-name="Path 16" d="M72.827,59.992a18.518,18.518,0,0,0-8.852-34.776H59.309A29.628,29.628,0,1,0,8.422,52.251" transform="translate(1147.005 3130.998)" fill="none" stroke="#ff7b49" stroke-linecap="round" stroke-linejoin="round" stroke-width="3"/>
      </g>
      <path id="Path_32" data-name="Path 32" d="M6691.69,3046.76s-.008-.032-.091-.4c-4.472-4.285-4.809-34.824,24.339-32.494" transform="translate(-5541 190)" fill="none" stroke="#ff7b49" stroke-linecap="round" stroke-width="3"/>
    </g>
  </g>
</svg>
