<svg xmlns="http://www.w3.org/2000/svg" width="62.122" height="65" viewBox="0 0 62.122 65">
  <g id="Group_119" data-name="Group 119" transform="translate(-1142 -2457)">
    <path id="Subtraction_3" data-name="Subtraction 3" d="M-5498.2,252h-35.4a7.408,7.408,0,0,1-7.4-7.4V197.4a7.408,7.408,0,0,1,7.4-7.4h23.618a1.5,1.5,0,0,1,.828.261l.012.008.007.006.007,0,.007.005,0,0a1.45,1.45,0,0,1,.178.151l17.682,17.682a1.5,1.5,0,0,1,.458,1.06V212.5h-3v-1.8H-5510a1.5,1.5,0,0,1-1.5-1.5V193h-22.1a4.4,4.4,0,0,0-4.4,4.4v47.2a4.4,4.4,0,0,0,4.4,4.4h35.4a4.4,4.4,0,0,0,4.4-4.4v-1.1h3v1.1A7.408,7.408,0,0,1-5498.2,252Zm-10.3-56.877V207.7h12.58l-12.58-12.578Zm.2,41.878h-23a1.5,1.5,0,0,1-1.5-1.5,1.5,1.5,0,0,1,1.5-1.5h23a1.5,1.5,0,0,1,1.5,1.5A1.5,1.5,0,0,1-5508.3,237Zm0-12h-23a1.5,1.5,0,0,1-1.5-1.5,1.5,1.5,0,0,1,1.5-1.5h23a1.5,1.5,0,0,1,1.5,1.5A1.5,1.5,0,0,1-5508.3,225Zm-17.5-11.349h-5.9a1.5,1.5,0,0,1-1.5-1.5,1.5,1.5,0,0,1,1.5-1.5h5.9a1.5,1.5,0,0,1,1.5,1.5A1.5,1.5,0,0,1-5525.8,213.65Z" transform="translate(6683 2267)" fill="#6a4a98"/>
    <g id="check-circle" transform="translate(1180 2483.006)">
      <path id="Path_26" data-name="Path 26" d="M22,11.08V12a10,10,0,1,1-5.93-9.14" fill="none" stroke="#ff7b49" stroke-linecap="round" stroke-linejoin="round" stroke-width="3"/>
      <path id="Path_27" data-name="Path 27" d="M22,4,12,14.01l-3-3" fill="none" stroke="#ff7b49" stroke-linecap="round" stroke-linejoin="round" stroke-width="3"/>
    </g>
    <path id="Subtraction_5" data-name="Subtraction 5" d="M-5506,249h-24a10.927,10.927,0,0,1-7.778-3.222A10.926,10.926,0,0,1-5541,238V201a10.927,10.927,0,0,1,3.222-7.779A10.931,10.931,0,0,1-5530,190h24.041L-5495,201.339v14.914a6.956,6.956,0,0,0-4-1.254,7.008,7.008,0,0,0-7,7,7.008,7.008,0,0,0,7,7,6.957,6.957,0,0,0,4-1.254V238a10.925,10.925,0,0,1-3.221,7.778A10.929,10.929,0,0,1-5506,249Z" transform="translate(6691 2273.001)" fill="#ff7b49" opacity="0.1"/>
  </g>
</svg>
