<svg xmlns="http://www.w3.org/2000/svg" width="88.662" height="70.333" viewBox="0 0 88.662 70.333">
  <g id="Group_118" data-name="Group 118" transform="translate(-366 -1769)">
    <path id="Path_21" data-name="Path 21" d="M5944.367,1654.062h-7.484l-3.285,1.825-4.2-2.92v-4.2l-5.658-5.841-4.563-1.1-1.825-3.286,1.825-3.286v-8.4l-1.825-3.468,1.825-4.2,2.738-1.1,5.11-4.746,2.373-3.833,5.841-2.738,2.92,1.643h6.206l4.2-1.643,4.746,1.643.913,2.373,6.023,6.206,3.65,1.1Z" transform="translate(-5541 172)" fill="#ff7b49" opacity="0.1"/>
    <g id="Group_159" data-name="Group 159">
      <path id="Path_22" data-name="Path 22" d="M5950.943,1663.156l31.369-49.193,2.995,3.707-2.995,7.13-18.822,30.656-2,3.707-10.551,5.418Z" transform="translate(-5541 172)" fill="#ff7b49" opacity="0.1"/>
      <path id="Subtraction_2" data-name="Subtraction 2" d="M-5515.63,259h0l-8.808-3.649-1.524-3.331,1.287-3.859-.3-.964a29.194,29.194,0,0,1-4.224-4.216l-.962-.3-3.854,1.281-3.331-1.52-3.649-8.807,1.278-3.433,3.631-1.818.467-.9a29.256,29.256,0,0,1,.007-5.967l-.47-.9-3.639-1.82-1.278-3.433,3.65-8.811,3.329-1.52,3.858,1.285.966-.3a28.878,28.878,0,0,1,4.216-4.223l.3-.966-1.287-3.853,1.521-3.331,8.811-3.649,3.428,1.285,1.819,3.632.9.466a28.924,28.924,0,0,1,2.944-.15,29.331,29.331,0,0,1,3.025.157l.9-.47,1.821-3.638,3.43-1.282,8.808,3.649,1.519,3.331-1.285,3.859.3.971a29.168,29.168,0,0,1,4.223,4.216l.964.3,3.854-1.285.877.4-3.005,3.721-1.695.565-2.915-.915-.309-.4a25.846,25.846,0,0,0-4.392-4.385l-.4-.312-.911-2.913,1.211-3.643-.461-1.011-6.454-2.676-1.044.388-1.72,3.436-2.707,1.418-.5-.06a25.893,25.893,0,0,0-3.126-.19,26.055,26.055,0,0,0-3.075.183l-.5.06-2.7-1.416-1.716-3.428-1.043-.389-6.455,2.677-.462,1.011,1.208,3.632-.911,2.913-.4.312a25.991,25.991,0,0,0-4.38,4.392l-.312.4-2.915.915-3.642-1.213-1.012.463-2.676,6.454.392,1.043,3.432,1.717,1.416,2.706-.06.5a25.975,25.975,0,0,0-.008,6.2l.061.5-1.352,2.585-.53.353-2.962,1.485-.39,1.044,2.676,6.454,1.012.462,3.639-1.214,2.909.914.309.395a25.889,25.889,0,0,0,4.392,4.385l.4.311.914,2.915-1.211,3.642.462,1.012,6.455,2.673,1.043-.389,1.716-3.436,2.708-1.414.5.06a26.046,26.046,0,0,0,3.132.19c.8,0,1.6-.037,2.391-.11v3.255c-.8.066-1.6.1-2.4.1a29.1,29.1,0,0,1-3-.156l-.9.47-1.818,3.635-3.431,1.281Zm9.105-19.876a14.83,14.83,0,0,1-14.825-14.8,14.831,14.831,0,0,1,14.825-14.8,14.831,14.831,0,0,1,14.825,14.8A14.83,14.83,0,0,1-5506.524,239.123Zm0-26.91a12.132,12.132,0,0,0-12.129,12.108,12.132,12.132,0,0,0,12.129,12.108,12.132,12.132,0,0,0,12.129-12.108A12.132,12.132,0,0,0-5506.524,212.214Z" transform="translate(5907 1579)" fill="#6a4a98"/>
    </g>
    <path id="edit-2" d="M36.42,4.073A6.49,6.49,0,0,1,45.6,13.251L14.621,44.23,2,47.672,5.442,35.051Z" transform="translate(395.856 1791.535) rotate(-13)" fill="none" stroke="#ff7b49" stroke-linecap="round" stroke-linejoin="round" stroke-width="3"/>
  </g>
</svg>
