<svg xmlns="http://www.w3.org/2000/svg" width="34.107" height="34.168" viewBox="0 0 34.107 34.168">
  <path id="phone-call2" d="M21.933,7.128a7.66,7.66,0,0,1,6.051,6.051M21.933,1A13.788,13.788,0,0,1,34.112,13.164M32.58,25.389v4.6a3.064,3.064,0,0,1-3.34,3.064,30.318,30.318,0,0,1-13.221-4.7,29.873,29.873,0,0,1-9.192-9.192,30.318,30.318,0,0,1-4.7-13.282,3.064,3.064,0,0,1,3.049-3.34h4.6a3.064,3.064,0,0,1,3.064,2.635,19.671,19.671,0,0,0,1.072,4.3,3.064,3.064,0,0,1-.689,3.232L11.27,14.65a24.512,24.512,0,0,0,9.192,9.192L22.408,21.9a3.064,3.064,0,0,1,3.232-.689,19.67,19.67,0,0,0,4.3,1.072,3.064,3.064,0,0,1,2.635,3.11Z" transform="translate(-1.111 0.104)" fill="rgba(0,0,0,0)" stroke="#ff7b49" stroke-linecap="round" stroke-linejoin="round" stroke-width="2"/>
</svg>
