<svg xmlns="http://www.w3.org/2000/svg" width="90" height="90" viewBox="0 0 90 90">
  <g id="Group_3" data-name="Group 3" transform="translate(-911 -496)">
    <rect id="Rectangle_120" data-name="Rectangle 120" width="90" height="90" transform="translate(911 496)" fill="none"/>
    <g id="Group_115" data-name="Group 115" transform="translate(191 -2677)">
      <path id="Subtraction_6" data-name="Subtraction 6" d="M55.454,70H5.546A5.44,5.44,0,0,1,0,64.683V5.316A5.44,5.44,0,0,1,5.546,0H21.258V2.658H5.546A2.721,2.721,0,0,0,2.773,5.316V64.683a2.721,2.721,0,0,0,2.773,2.659H55.454a2.721,2.721,0,0,0,2.773-2.659V5.316a2.721,2.721,0,0,0-2.773-2.659H40.667V0H55.454A5.44,5.44,0,0,1,61,5.316V64.683A5.44,5.44,0,0,1,55.454,70Z" transform="translate(735 3187.853)" fill="#6a4a98"/>
      <path id="Rectangle_79" data-name="Rectangle 79" d="M2.786,2.786V8.357H16.714V2.786H2.786M1.857,0H17.642A1.857,1.857,0,0,1,19.5,1.857V9.285a1.857,1.857,0,0,1-1.857,1.857H1.857A1.857,1.857,0,0,1,0,9.285V1.857A1.857,1.857,0,0,1,1.857,0Z" transform="translate(756.356 3183.571)" fill="#6a4a98"/>
      <path id="Ellipse_22" data-name="Ellipse 22" d="M4.178,2.786A1.393,1.393,0,1,0,5.571,4.178,1.393,1.393,0,0,0,4.178,2.786M4.178,0A4.178,4.178,0,1,1,0,4.178,4.178,4.178,0,0,1,4.178,0Z" transform="translate(761.927 3178)" fill="#6a4a98"/>
      <g id="Group_112" data-name="Group 112" transform="translate(742.763 3199.073)">
        <path id="Subtraction_7" data-name="Subtraction 7" d="M14,14H0V0H14V1.72L12.134,3.275V1.867H1.867V12.133H12.134v-3.4L14,6.864Z" transform="translate(0.236 -0.219)" fill="#ff7b49"/>
        <path id="Path_29" data-name="Path 29" d="M6292.57,3024.07l2.689,2.689,6.8-6.8" transform="translate(-6286.804 -3016.928)" fill="none" stroke="#ff7b49" stroke-linecap="round" stroke-width="2"/>
      </g>
      <g id="Group_113" data-name="Group 113" transform="translate(742.762 3217.927)">
        <path id="Subtraction_7-2" data-name="Subtraction 7" d="M14,14H0V0H14V1.719L12.134,3.276V1.866H1.867V12.132H12.134v-3.4L14,6.863Z" transform="translate(0.237 -0.073)" fill="#ff7b49"/>
        <path id="Path_29-2" data-name="Path 29" d="M6292.57,3024.07l2.689,2.689,6.8-6.8" transform="translate(-6286.804 -3017.212)" fill="none" stroke="#ff7b49" stroke-linecap="round" stroke-width="2"/>
      </g>
      <g id="Group_114" data-name="Group 114" transform="translate(742.762 3236.781)">
        <path id="Subtraction_7-3" data-name="Subtraction 7" d="M14,14H0V0H14V1.719L12.134,3.276V1.866H1.867V12.132H12.134v-3.4L14,6.863Z" transform="translate(0.237 0.072)" fill="#ff7b49"/>
        <path id="Path_29-3" data-name="Path 29" d="M6292.57,3024.07l2.689,2.689,6.8-6.8" transform="translate(-6286.804 -3016.387)" fill="none" stroke="#ff7b49" stroke-linecap="round" stroke-width="2"/>
      </g>
      <line id="Line_15" data-name="Line 15" x2="25.999" transform="translate(763.32 3206.32)" fill="none" stroke="#6a4a98" stroke-linecap="round" stroke-width="3"/>
      <line id="Line_16" data-name="Line 16" x2="25.999" transform="translate(763.32 3224.891)" fill="none" stroke="#6a4a98" stroke-linecap="round" stroke-width="3"/>
      <line id="Line_17" data-name="Line 17" x2="25.999" transform="translate(763.32 3243.461)" fill="none" stroke="#6a4a98" stroke-linecap="round" stroke-width="3"/>
    </g>
  </g>
</svg>
