<svg xmlns="http://www.w3.org/2000/svg" xmlns:xlink="http://www.w3.org/1999/xlink" width="90" height="90" viewBox="0 0 90 90">
  <defs>
    <clipPath id="clip-path">
      <rect id="Rectangle_30" data-name="Rectangle 30" width="90" height="90" transform="translate(947 911)" fill="#fc9898" opacity="0.73"/>
    </clipPath>
  </defs>
  <g id="datapoints" transform="translate(-947 -911)" clip-path="url(#clip-path)">
    <g id="datapoints-2" data-name="datapoints" transform="translate(569.667 -364.056)">
      <line id="Line_29" data-name="Line 29" x1="5.459" y2="5.609" transform="translate(405.889 1330.058)" fill="none" stroke="#6a4a98" stroke-linecap="round" stroke-width="3"/>
      <line id="Line_28" data-name="Line 28" y1="19.543" x2="20.132" transform="translate(431.091 1293.889)" fill="none" stroke="#6a4a98" stroke-linecap="round" stroke-width="3"/>
      <line id="Line_24" data-name="Line 24" y2="15.111" transform="translate(421.739 1293.889)" fill="none" stroke="#6a4a98" stroke-linecap="round" stroke-width="3"/>
      <path id="Path_390" data-name="Path 390" d="M1.519,0H16.06" transform="translate(434.039 1321.745)" fill="none" stroke="#6a4a98" stroke-linecap="round" stroke-width="3"/>
      <path id="Path_388" data-name="Path 388" d="M0,1.923v9.965" transform="translate(421.739 1334)" fill="none" stroke="#6a4a98" stroke-linecap="round" stroke-width="3"/>
      <path id="Path_389" data-name="Path 389" d="M0,0H13.085" transform="translate(396.681 1318.628)" fill="none" stroke="#6a4a98" stroke-linecap="round" stroke-width="3"/>
      <g id="Ellipse_36" data-name="Ellipse 36" transform="translate(408.333 1309.056)" fill="none" stroke="#ff7b49" stroke-width="3">
        <circle cx="14" cy="14" r="14" stroke="none"/>
        <circle cx="14" cy="14" r="12.5" fill="none"/>
      </g>
      <g id="Ellipse_37" data-name="Ellipse 37" transform="translate(414.333 1281.056)" fill="none" stroke="#6a4a98" stroke-width="3">
        <circle cx="7" cy="7" r="7" stroke="none"/>
        <circle cx="7" cy="7" r="5.5" fill="none"/>
      </g>
      <g id="Ellipse_38" data-name="Ellipse 38" transform="translate(414.333 1346.056)" fill="none" stroke="#6a4a98" stroke-width="3">
        <circle cx="7" cy="7" r="7" stroke="none"/>
        <circle cx="7" cy="7" r="5.5" fill="none"/>
      </g>
      <g id="Ellipse_39" data-name="Ellipse 39" transform="translate(449.333 1316.056)" fill="none" stroke="#6a4a98" stroke-width="3">
        <circle cx="5" cy="5" r="5" stroke="none"/>
        <circle cx="5" cy="5" r="3.5" fill="none"/>
      </g>
      <g id="Ellipse_40" data-name="Ellipse 40" transform="translate(385.333 1312.056)" fill="none" stroke="#6a4a98" stroke-width="3">
        <circle cx="6" cy="6" r="6" stroke="none"/>
        <circle cx="6" cy="6" r="4.5" fill="none"/>
      </g>
      <g id="Ellipse_41" data-name="Ellipse 41" transform="translate(397.333 1334.056)" fill="none" stroke="#6a4a98" stroke-width="3">
        <circle cx="5.5" cy="5.5" r="5.5" stroke="none"/>
        <circle cx="5.5" cy="5.5" r="4" fill="none"/>
      </g>
      <g id="Ellipse_42" data-name="Ellipse 42" transform="translate(449.333 1285.056)" fill="none" stroke="#6a4a98" stroke-width="3">
        <circle cx="5" cy="5" r="5" stroke="none"/>
        <circle cx="5" cy="5" r="3.5" fill="none"/>
      </g>
    </g>
  </g>
</svg>
