<svg xmlns="http://www.w3.org/2000/svg" xmlns:xlink="http://www.w3.org/1999/xlink" width="90" height="90" viewBox="0 0 90 90">
  <defs>
    <clipPath id="clip-path">
      <rect id="Rectangle_25" data-name="Rectangle 25" width="90" height="90" transform="translate(1062 913)" fill="#fc9898" opacity="0.73"/>
    </clipPath>
  </defs>
  <g id="integration" transform="translate(-1062 -913)" clip-path="url(#clip-path)">
    <g id="integration-2" data-name="integration" transform="translate(306.667 710.966)">
      <g id="Icon_feather-arrow-right" data-name="Icon feather-arrow-right" transform="translate(777.284 250.724)">
        <path id="Path_386" data-name="Path 386" d="M26.9,15.915H7.5V-9.362" transform="translate(-7.5 9.362)" fill="none" stroke="#ff7b49" stroke-linecap="round" stroke-linejoin="round" stroke-width="3"/>
        <path id="Path_387" data-name="Path 387" d="M20,11.5l7.852,6L20,24.433h0" transform="translate(-8.452 7.773)" fill="none" stroke="#ff7b49" stroke-linecap="round" stroke-linejoin="round" stroke-width="3"/>
      </g>
      <g id="Icon_feather-arrow-right-2" data-name="Icon feather-arrow-right" transform="translate(804.075 211)">
        <path id="Path_386-2" data-name="Path 386" d="M7.5-9.362H26.9V15.915" transform="translate(-7.5 16.291)" fill="none" stroke="#ff7b49" stroke-linecap="round" stroke-linejoin="round" stroke-width="3"/>
        <path id="Path_387-2" data-name="Path 387" d="M27.852,24.433l-7.852-6L27.852,11.5h0" transform="translate(-20 -11.5)" fill="none" stroke="#ff7b49" stroke-linecap="round" stroke-linejoin="round" stroke-width="3"/>
      </g>
      <g id="Icon_feather-file" data-name="Icon feather-file" transform="translate(768 211)">
        <path id="Path_393" data-name="Path 393" d="M18.471,3h-9.7A2.771,2.771,0,0,0,6,5.771V27.943a2.771,2.771,0,0,0,2.771,2.771H25.4a2.771,2.771,0,0,0,2.771-2.771V12.7Z" transform="translate(-6 -3)" fill="none" stroke="#6a4a98" stroke-linecap="round" stroke-linejoin="round" stroke-width="3"/>
        <path id="Path_394" data-name="Path 394" d="M19.5,3v9.7h9.7" transform="translate(-7.029 -3)" fill="none" stroke="#6a4a98" stroke-linecap="round" stroke-linejoin="round" stroke-width="3"/>
      </g>
      <g id="Icon_feather-file-2" data-name="Icon feather-file" transform="translate(810.495 253.495)">
        <path id="Path_393-2" data-name="Path 393" d="M18.471,3h-9.7A2.771,2.771,0,0,0,6,5.771V27.943a2.771,2.771,0,0,0,2.771,2.771H25.4a2.771,2.771,0,0,0,2.771-2.771V12.7Z" transform="translate(-6 -3)" fill="none" stroke="#6a4a98" stroke-linecap="round" stroke-linejoin="round" stroke-width="3"/>
        <path id="Path_394-2" data-name="Path 394" d="M19.5,3v9.7h9.7" transform="translate(-7.029 -3)" fill="none" stroke="#6a4a98" stroke-linecap="round" stroke-linejoin="round" stroke-width="3"/>
      </g>
    </g>
  </g>
</svg>
