<svg xmlns="http://www.w3.org/2000/svg" xmlns:xlink="http://www.w3.org/1999/xlink" width="77" height="69" viewBox="0 0 77 69">
  <defs>
    <clipPath id="clip-path">
      <rect id="Rectangle_23" data-name="Rectangle 23" width="77" height="69" transform="translate(1296 561)" fill="#fff" stroke="#707070" stroke-width="1" opacity="0.69"/>
    </clipPath>
  </defs>
  <g id="modern-interface-ico" transform="translate(-1296 -561)" clip-path="url(#clip-path)">
    <g id="modern-interface-ico-2" data-name="modern-interface-ico" transform="translate(7.5 6.971)">
      <rect id="Rectangle_20" data-name="Rectangle 20" width="59" height="49" rx="8" transform="translate(1303.5 567.029)" fill="#fff1ec"/>
      <g id="user-experience" transform="translate(1297.5 560.803)">
        <path id="Path_51" data-name="Path 51" d="M15.329,52.192H9.149A6.149,6.149,0,0,1,3,46.043V9.149A6.149,6.149,0,0,1,9.149,3H55.266a6.149,6.149,0,0,1,6.149,6.149V46.043a6.149,6.149,0,0,1-6.149,6.149H48.81" transform="translate(-3 -3)" fill="none" stroke="#6a4a98" stroke-linecap="round" stroke-width="3" fill-rule="evenodd"/>
        <path id="Path_52" data-name="Path 52" d="M3.5,7.5H58.841" transform="translate(-1.963 6.335)" fill="none" stroke="#6a4a98" stroke-linecap="square" stroke-width="3" fill-rule="evenodd"/>
        <circle id="Ellipse_11" data-name="Ellipse 11" cx="2.434" cy="2.434" r="2.434" transform="translate(40.5 4.612)" fill="none" stroke="#ff7b49" stroke-width="2"/>
        <circle id="Ellipse_12" data-name="Ellipse 12" cx="2.434" cy="2.434" r="2.434" transform="translate(32.5 4.612)" fill="none" stroke="#ff7b49" stroke-width="2"/>
        <circle id="Ellipse_13" data-name="Ellipse 13" cx="2.434" cy="2.434" r="2.434" transform="translate(48.5 4.612)" fill="none" stroke="#ff7b49" stroke-width="2"/>
        <path id="Path_53" data-name="Path 53" d="M11,35.984V20.612a4.612,4.612,0,0,1,9.223,0V35.984" transform="translate(13.596 23.968)" fill="none" stroke="#ff7b49" stroke-width="3" fill-rule="evenodd"/>
        <path id="Path_54" data-name="Path 54" d="M30.21,33.8a12.3,12.3,0,1,0-19.093-.329" transform="translate(8.408 18.968)" fill="none" stroke="#ff7b49" stroke-linecap="round" stroke-width="3" fill-rule="evenodd"/>
        <path id="Path_55" data-name="Path 55" d="M13.537,17a1.537,1.537,0,0,1,1.537,1.537v1.537H12V18.537A1.537,1.537,0,0,1,13.537,17Z" transform="translate(15.67 26.043)" fill="#ff7b49" fill-rule="evenodd"/>
      </g>
      <rect id="Rectangle_21" data-name="Rectangle 21" width="31" height="3" rx="1.5" transform="translate(1304.5 580.029)" fill="#6a4a98"/>
      <rect id="Rectangle_22" data-name="Rectangle 22" width="45" height="3" rx="1.5" transform="translate(1304.5 586.029)" fill="#6a4a98"/>
    </g>
  </g>
</svg>
