<svg xmlns="http://www.w3.org/2000/svg" xmlns:xlink="http://www.w3.org/1999/xlink" width="90" height="90" viewBox="0 0 90 90">
  <defs>
    <clipPath id="clip-path">
      <rect id="Rectangle_26" data-name="Rectangle 26" width="90" height="90" transform="translate(1167 915)" fill="#fc9898" opacity="0.73"/>
    </clipPath>
  </defs>
  <g id="proven-system" transform="translate(-1167 -915)" clip-path="url(#clip-path)">
    <g id="proven-system-2" data-name="proven-system" transform="translate(29 -360)">
      <g id="Group_116" data-name="Group 116" transform="translate(761.5 -1911)">
        <path id="Subtraction_8" data-name="Subtraction 8" d="M-5509,263.655h0a35.706,35.706,0,0,1-11.179-3.487,36.034,36.034,0,0,1-9.277-6.712,36.042,36.042,0,0,1-6.711-9.276,35.711,35.711,0,0,1-3.487-11.18h3.028a32.749,32.749,0,0,0,2.218,7.844,32.859,32.859,0,0,0,7.074,10.491,32.91,32.91,0,0,0,10.489,7.074,32.739,32.739,0,0,0,7.845,2.218v3.028Zm11-.153h0V260.46a32.772,32.772,0,0,0,6.845-2.051,32.893,32.893,0,0,0,10.491-7.074,32.9,32.9,0,0,0,7.073-10.491,32.75,32.75,0,0,0,2.218-7.844h3.031a35.691,35.691,0,0,1-3.378,10.962,36.031,36.031,0,0,1-6.482,9.151,36.06,36.06,0,0,1-8.966,6.72A35.72,35.72,0,0,1-5498,263.5Zm29.5-41.5h-3.044a32.781,32.781,0,0,0-2.05-6.843,32.893,32.893,0,0,0-7.073-10.491,32.921,32.921,0,0,0-10.492-7.074,32.808,32.808,0,0,0-6.844-2.05V192.5a35.716,35.716,0,0,1,10.613,3.556,36.054,36.054,0,0,1,8.842,6.49,36.051,36.051,0,0,1,6.49,8.842A35.722,35.722,0,0,1-5468.5,222Zm-67.96,0h-3.043a35.716,35.716,0,0,1,3.67-10.829,36.061,36.061,0,0,1,6.72-8.965,36,36,0,0,1,9.15-6.482A35.724,35.724,0,0,1-5509,192.344v3.03a32.786,32.786,0,0,0-7.845,2.217,32.932,32.932,0,0,0-10.489,7.074,32.861,32.861,0,0,0-7.075,10.491,32.74,32.74,0,0,0-2.049,6.842Z" transform="translate(5925 3004)" fill="#6a4a98"/>
        <path id="Union_4" data-name="Union 4" d="M-5499.5,272a5.006,5.006,0,0,0,5-5,5,5,0,0,0-5-5,5,5,0,0,0-5,5,5.007,5.007,0,0,0,5,5m35.5-34a5.006,5.006,0,0,0,5-5,5.006,5.006,0,0,0-5-5,5.006,5.006,0,0,0-5,5,5.006,5.006,0,0,0,5,5m-69,0a5.006,5.006,0,0,0,5-5,5.006,5.006,0,0,0-5-5,5.006,5.006,0,0,0-5,5,5.006,5.006,0,0,0,5,5m33.5-35a5.006,5.006,0,0,0,5-5,5.006,5.006,0,0,0-5-5,5.006,5.006,0,0,0-5,5,5.006,5.006,0,0,0,5,5m0,72a8,8,0,0,1-8-8,8,8,0,0,1,8-8,8,8,0,0,1,8,8A8,8,0,0,1-5499.5,275Zm35.5-34a8,8,0,0,1-8-8,8,8,0,0,1,8-8,8,8,0,0,1,8,8A8,8,0,0,1-5464,241Zm-69,0a8,8,0,0,1-8-8,8,8,0,0,1,8-8,8,8,0,0,1,8,8A8,8,0,0,1-5533,241Zm33.5-35a8,8,0,0,1-8-8,8,8,0,0,1,8-8,8,8,0,0,1,8,8A8,8,0,0,1-5499.5,206Z" transform="translate(5920.5 2999)" fill="#6a4a98"/>
      </g>
      <g id="Icon_feather-check-circle" data-name="Icon feather-check-circle" transform="translate(1164 1303.009)">
        <path id="Path_391" data-name="Path 391" d="M33,16.62V18A15,15,0,1,1,24.105,4.29" fill="none" stroke="#ff7b49" stroke-linecap="round" stroke-linejoin="round" stroke-width="3"/>
        <path id="Path_392" data-name="Path 392" d="M33,6,18,21.015l-4.5-4.5" fill="none" stroke="#ff7b49" stroke-linecap="round" stroke-linejoin="round" stroke-width="3"/>
      </g>
    </g>
  </g>
</svg>
