<svg xmlns="http://www.w3.org/2000/svg" xmlns:xlink="http://www.w3.org/1999/xlink" width="90" height="72" viewBox="0 0 90 72">
  <defs>
    <clipPath id="clip-path">
      <rect id="Rectangle_15" data-name="Rectangle 15" width="90" height="72" transform="translate(677 355)" fill="#a84242" opacity="0.81"/>
    </clipPath>
  </defs>
  <g id="quality-data-ico" transform="translate(-677 -355)" clip-path="url(#clip-path)">
    <path id="Union_5" data-name="Union 5" d="M27,61A10,10,0,0,1,17,51v-4.53A20.662,20.662,0,0,1,10.75,47.56C5.5,47.56,0,44.8,0,44.8V26.421c0-2.03,4.7-3.676,10.5-3.676a25.023,25.023,0,0,1,6.5.789V10A10,10,0,0,1,27,0H55A10,10,0,0,1,65,10V51A10,10,0,0,1,55,61Z" transform="translate(689 365)" fill="#fef0eb"/>
    <g id="dasd" transform="translate(29.167 -122.5)">
      <g id="quality-data-ico-2" data-name="quality-data-ico">
        <g id="Group_14" data-name="Group 14" transform="matrix(0.891, -0.454, 0.454, 0.891, 669.476, 503.548)">
          <path id="Path_31" data-name="Path 31" d="M0,0,28.211-.346l-.346,28.714-28.211.346Z" transform="translate(0 0)" fill="none"/>
          <path id="Path_32" data-name="Path 32" d="M-.144,11.964l.123-10.17A1.832,1.832,0,0,1,1.763-.022,1.728,1.728,0,0,1,3.5,1.751L3.4,10.725" transform="translate(9.36 3.474)" fill="none"/>
          <path id="Path_33" data-name="Path 33" d="M-.051,4.188l.029-2.393A1.832,1.832,0,0,1,1.763-.022,1.728,1.728,0,0,1,3.5,1.751L3.469,4.742" transform="translate(12.814 9.413)" fill="none"/>
          <path id="Path_34" data-name="Path 34" d="M-.022,1.795A1.832,1.832,0,0,1,1.763-.022,1.728,1.728,0,0,1,3.5,1.751L3.483,3.546" transform="translate(16.326 10.566)" fill="none"/>
          <path id="Path_35" data-name="Path 35" d="M15.822,1.6A1.832,1.832,0,0,1,17.607-.216a1.728,1.728,0,0,1,1.742,1.773l-.065,5.384a7.329,7.329,0,0,1-7.139,7.265l-2.351.029.244,0a6.827,6.827,0,0,1-5.853-3.159l-.225-.355Q3.42,9.865.18,3.912A1.84,1.84,0,0,1,.839,1.485a2.15,2.15,0,0,1,2.676.3L5.221,3.525" transform="translate(3.995 11.913)" fill="none"/>
        </g>
      </g>
      <g id="eete" transform="translate(666 480)">
        <path id="Subtraction_3" data-name="Subtraction 3" d="M-5533.6,255.5h35.4a7.626,7.626,0,0,0,7.4-7.818V197.818a7.626,7.626,0,0,0-7.4-7.818h-23.618a1.445,1.445,0,0,0-.828.276l-.013.008-.007.006h-.007l-.007.005h0a1.428,1.428,0,0,0-.179.159l-17.682,18.68a1.632,1.632,0,0,0-.458,1.12v3.515h3v-1.9h16.2a1.544,1.544,0,0,0,1.5-1.585V193.169h22.1a4.529,4.529,0,0,1,4.4,4.648v49.865a4.529,4.529,0,0,1-4.4,4.648h-35.4a4.529,4.529,0,0,1-4.4-4.648h-3a7.625,7.625,0,0,0,7.4,7.818Zm10.3-60.088V208.7h-12.58l12.58-13.288Zm4.8,44.242h18a1.544,1.544,0,0,0,1.5-1.585,1.544,1.544,0,0,0-1.5-1.585h-18a1.544,1.544,0,0,0-1.5,1.585,1.544,1.544,0,0,0,1.5,1.584Zm0-12.677h18a1.544,1.544,0,0,0,1.5-1.585,1.544,1.544,0,0,0-1.5-1.585h-18a1.544,1.544,0,0,0-1.5,1.585,1.544,1.544,0,0,0,1.5,1.584Zm8.5-11.99h9.9a1.544,1.544,0,0,0,1.5-1.585,1.544,1.544,0,0,0-1.5-1.585h-9.9a1.544,1.544,0,0,0-1.5,1.585,1.544,1.544,0,0,0,1.5,1.583Z" transform="translate(5544.801 -190)" fill="#6a4a98"/>
      </g>
      <g id="Group_16" data-name="Group 16" transform="translate(649.667 503.667)">
        <path id="Path_10" data-name="Path 10" d="M41.5,0H0V30.667H41.5Z" fill="none"/>
        <ellipse id="Ellipse_9" data-name="Ellipse 9" cx="15.583" cy="4" rx="15.583" ry="4" transform="translate(5.333 3.333)" fill="none" stroke="#ff7b49" stroke-linecap="round" stroke-linejoin="round" stroke-width="3"/>
        <path id="Path_11" data-name="Path 11" d="M35.278,6v8.942c0,2.47-7,4.471-15.639,4.471-2.162,0-6.825-.352-8.958-.622M4,14.942V6" transform="translate(1.111 1.667)" fill="none" stroke="#ff7b49" stroke-linecap="round" stroke-linejoin="round" stroke-width="3"/>
        <path id="Path_12" data-name="Path 12" d="M35.278,7.994V19.667c0,2.043-6.519,3.712-14.736,3.827" transform="translate(1.111 7.173)" fill="none" stroke="#ff7b49" stroke-linecap="round" stroke-linejoin="round" stroke-width="3"/>
        <g id="Group_10" data-name="Group 10" transform="translate(1.75 23.917)">
          <line id="Line_1" data-name="Line 1" x1="14.559" transform="translate(0.358 5.011)" fill="none" stroke="#6a4a98" stroke-linecap="round" stroke-width="3"/>
          <line id="Line_2" data-name="Line 2" x1="5.011" y2="5.011" fill="none" stroke="#6a4a98" stroke-linecap="round" stroke-width="3"/>
          <line id="Line_3" data-name="Line 3" x1="5.011" y1="5.011" transform="translate(0 5.011)" fill="none" stroke="#6a4a98" stroke-linecap="round" stroke-width="3"/>
        </g>
      </g>
    </g>
  </g>
</svg>
