<svg xmlns="http://www.w3.org/2000/svg" width="67" height="65.001" viewBox="0 0 67 65.001">
  <g id="speed-analysis-ico" transform="translate(-959 -453)">
    <path id="flash-outline" d="M111.76,32.072,96,51.55h9.2L102.935,64a.17.17,0,0,0,.167.2h0a.17.17,0,0,0,.136-.068L119,44.65h-9.2L112.076,32.2a.176.176,0,0,0-.175-.2h0A.174.174,0,0,0,111.76,32.072Z" transform="translate(905.5 442.4)" fill="none" stroke="#fff1ec" stroke-linecap="round" stroke-linejoin="round" stroke-width="3"/>
    <g id="Group_119" data-name="Group 119" transform="translate(-183 -2004)">
      <path id="Subtraction_5" data-name="Subtraction 5" d="M-5506,249h-24a10.927,10.927,0,0,1-7.778-3.222A10.925,10.925,0,0,1-5541,238V201a10.926,10.926,0,0,1,3.222-7.779A10.931,10.931,0,0,1-5530,190h24.041L-5495,201.339V238s-1.151,5.72-3.221,7.778A10.929,10.929,0,0,1-5506,249Z" transform="translate(6691 2273.001)" fill="#ff7b49" opacity="0.1"/>
      <path id="Subtraction_3" data-name="Subtraction 3" d="M-5498.2,252h-35.4a7.408,7.408,0,0,1-7.4-7.4V197.4a7.408,7.408,0,0,1,7.4-7.4h23.618a1.5,1.5,0,0,1,.828.261l.013.008.007.006h.007l.007.005h0a1.405,1.405,0,0,1,.179.151l17.682,17.682a1.5,1.5,0,0,1,.458,1.06V212.5h-3v-1.8H-5510a1.5,1.5,0,0,1-1.5-1.5V193h-22.1a4.4,4.4,0,0,0-4.4,4.4v47.2a4.4,4.4,0,0,0,4.4,4.4h35.4a4.4,4.4,0,0,0,4.4-4.4v-1.1h3v1.1a7.407,7.407,0,0,1-7.4,7.4Zm-10.3-56.877V207.7h12.58l-12.58-12.578Zm.2,41.878h-23a1.5,1.5,0,0,1-1.5-1.5,1.5,1.5,0,0,1,1.5-1.5h23a1.5,1.5,0,0,1,1.5,1.5,1.5,1.5,0,0,1-1.5,1.5Zm0-12h-23a1.5,1.5,0,0,1-1.5-1.5,1.5,1.5,0,0,1,1.5-1.5h23a1.5,1.5,0,0,1,1.5,1.5,1.5,1.5,0,0,1-1.5,1.5Zm-7.5-11.349h-15.9a1.5,1.5,0,0,1-1.5-1.5,1.5,1.5,0,0,1,1.5-1.5h15.9a1.5,1.5,0,0,1,1.5,1.5,1.5,1.5,0,0,1-1.5,1.5Z" transform="translate(6683 2267)" fill="#6a4a98"/>
    </g>
    <path id="flash-outline-2" data-name="flash-outline" d="M111.76,32.072,96,51.55h9.2L102.935,64a.17.17,0,0,0,.167.2h0a.17.17,0,0,0,.136-.068L119,44.65h-9.2L112.076,32.2a.176.176,0,0,0-.175-.2h0A.174.174,0,0,0,111.76,32.072Z" transform="translate(905.5 438.4)" fill="none" stroke="#ff7b49" stroke-linecap="round" stroke-linejoin="round" stroke-width="3"/>
  </g>
</svg>
