<svg xmlns="http://www.w3.org/2000/svg" width="66.867" height="59.045" viewBox="0 0 66.867 59.045">
  <g id="audit-ready-ico" transform="translate(-572.25 -683.955)">
    <path id="Union_1" data-name="Union 1" d="M2.857,49.16C1.021,47.346,0,42.3,0,42.3V9.994L9.722,0H31.048a9.727,9.727,0,0,1,6.9,2.839,9.6,9.6,0,0,1,2.858,6.856v9.25a11.017,11.017,0,1,1,0,21.158v2.2a9.6,9.6,0,0,1-2.858,6.856,9.731,9.731,0,0,1-6.9,2.84H9.731A9.729,9.729,0,0,1,2.857,49.16Z" transform="translate(579 691)" fill="#ff7b49" opacity="0.1"/>
    <path id="Subtraction_1" data-name="Subtraction 1" d="M37.764,54.707H6.529A6.546,6.546,0,0,1,0,48.177v-.971L0,16.917a1.334,1.334,0,0,1,.4-.935l15.6-15.6a1.232,1.232,0,0,1,.158-.133l.006,0h.006l.005-.005L16.195.23a1.329,1.329,0,0,1,.73-.23H37.764a6.547,6.547,0,0,1,6.53,6.529V17.206H41.647V6.53a3.887,3.887,0,0,0-3.883-3.882h-19.5V16.942a1.325,1.325,0,0,1-1.324,1.323H2.649V47.206l0,.971a3.886,3.886,0,0,0,3.882,3.882H37.764a3.905,3.905,0,0,0,3.5-2.206h2.808A6.543,6.543,0,0,1,37.764,54.707ZM15.617,4.52h0l-11.1,11.1h11.1V4.521ZM31.323,45H11.029a1.323,1.323,0,0,1,0-2.647H31.323a1.323,1.323,0,0,1,0,2.647Zm0-8.588H11.029a1.323,1.323,0,0,1,0-2.647H31.323a1.323,1.323,0,0,1,0,2.647ZM25.5,27.4H11.471a1.323,1.323,0,1,1,0-2.647H25.5a1.323,1.323,0,1,1,0,2.647Z" transform="translate(572.25 683.955)" fill="#6a4a98"/>
    <g id="Group_5" data-name="Group 5" transform="translate(-2.99 -3.25)">
      <g id="search" transform="translate(632.67 729.69)">
        <g id="Group_4" data-name="Group 4" transform="translate(-0.43 0.31)">
          <line id="Line_14" data-name="Line 14" x1="8" y1="9" transform="translate(-0.25 0.25)" fill="none" stroke="#ff7b49" stroke-linecap="round" stroke-linejoin="round" stroke-width="3"/>
        </g>
      </g>
      <path id="Path_26" data-name="Path 26" d="M27.2,13.442V14.6A12.6,12.6,0,1,1,19.728,3.085" transform="translate(609 706.006)" fill="none" stroke="#ff7b49" stroke-linecap="round" stroke-linejoin="round" stroke-width="3"/>
      <path id="Path_27" data-name="Path 27" d="M25.38,4,12.78,16.612,9,12.833" transform="translate(610.82 706.528)" fill="none" stroke="#6a4a98" stroke-linecap="round" stroke-linejoin="round" stroke-width="3"/>
    </g>
  </g>
</svg>
