<svg xmlns="http://www.w3.org/2000/svg" xmlns:xlink="http://www.w3.org/1999/xlink" width="82.25" height="73" viewBox="0 0 82.25 73">
  <defs>
    <clipPath id="clip-path">
      <rect id="Rectangle_24" data-name="Rectangle 24" width="73" height="73" transform="translate(-0.25 0.049)" fill="#fff" stroke="#707070" stroke-width="1" opacity="0.72"/>
    </clipPath>
  </defs>
  <g id="provider-flexibility-ico" transform="translate(-1055.75 -593.049)">
    <g id="provider-flexibility-ico-2" data-name="provider-flexibility-ico" transform="translate(1056 593)" clip-path="url(#clip-path)">
      <g id="provider-flexibility-ico-3" data-name="provider-flexibility-ico" transform="translate(4.799 3.701)">
        <circle id="Ellipse_31" data-name="Ellipse 31" cx="25.262" cy="25.262" r="25.262" transform="translate(7.547 10.183)" fill="#fff1ec"/>
        <rect id="Rectangle_125" data-name="Rectangle 125" width="66.621" height="66.621" fill="none"/>
        <g id="Path_73" data-name="Path 73" transform="translate(1.851 3.259)">
          <path id="Path_74" data-name="Path 74" d="M28.261,0A28.261,28.261,0,1,1,0,28.261,28.261,28.261,0,0,1,28.261,0Z" transform="translate(0 0)" fill="none"/>
          <path id="Subtraction_3" data-name="Subtraction 3" d="M28.261,56.523a28.269,28.269,0,0,1-11-54.3A28.286,28.286,0,0,1,52.68,14.026a28.014,28.014,0,0,1,3.395,9.2L53.546,26.6A25.318,25.318,0,0,0,28.315,2.935h-.054A25.333,25.333,0,1,0,38.6,51.39v3.182A28.129,28.129,0,0,1,28.261,56.523Z" transform="translate(0 0)" fill="#6a4a98"/>
        </g>
        <g id="_2561496_user_icon" data-name="2561496_user_icon" transform="translate(19.431 18.989)">
          <path id="Path_72" data-name="Path 72" d="M26.6,23.475V20.65A5.65,5.65,0,0,0,20.95,15H9.65A5.65,5.65,0,0,0,4,20.65v2.825" transform="translate(-4 1.479)" fill="none" stroke="#6a4a98" stroke-linecap="round" stroke-linejoin="round" stroke-width="3"/>
          <circle id="Ellipse_30" data-name="Ellipse 30" cx="5.65" cy="5.65" r="5.65" transform="translate(5.65 0)" fill="none" stroke="#6a4a98" stroke-linecap="round" stroke-linejoin="round" stroke-width="3"/>
        </g>
      </g>
    </g>
    <g id="Group_24" data-name="Group 24" transform="translate(1105.966 631.862)">
      <path id="Path_56" data-name="Path 56" d="M0,0H22.207V22.207H0Z" transform="translate(0 5.552)" fill="none"/>
      <path id="Path_62" data-name="Path 62" d="M0,0V14.111" transform="translate(15.73 0.694)" fill="none" stroke="#fff1ec" stroke-linecap="round" stroke-width="3"/>
      <path id="Path_57" data-name="Path 57" d="M13,6.7,16.7,3l3.7,3.7" transform="translate(-0.971 -3)" fill="none" stroke="#fff1ec" stroke-linecap="round" stroke-linejoin="round" stroke-width="3"/>
      <path id="Path_58" data-name="Path 58" d="M6.7,13.4,3,9.7,6.7,6" transform="translate(-2.075 5.239)" fill="none" stroke="#fff1ec" stroke-linecap="round" stroke-linejoin="round" stroke-width="3"/>
      <path id="Path_59" data-name="Path 59" d="M14.513,14.953A10.062,10.062,0,0,0,5.776,10H3" transform="translate(-2.075 4.94)" fill="none" stroke="#fff1ec" stroke-linecap="round" stroke-linejoin="round" stroke-width="3"/>
      <path id="Path_60" data-name="Path 60" d="M3,13.4,6.7,9.7,3,6" transform="translate(23.833 5.103)" fill="none" stroke="#fff1ec" stroke-linecap="round" stroke-linejoin="round" stroke-width="3"/>
      <path id="Path_61" data-name="Path 61" d="M3,20.178A10.178,10.178,0,0,1,13.178,10h2.776" transform="translate(14.58 4.805)" fill="none" stroke="#fff1ec" stroke-linecap="round" stroke-linejoin="round" stroke-width="3"/>
    </g>
    <g id="Group_23" data-name="Group 23" transform="translate(1104.115 630.011)">
      <path id="Path_56-2" data-name="Path 56" d="M0,0H22.207V22.207H0Z" transform="translate(0 5.552)" fill="none"/>
      <path id="Path_62-2" data-name="Path 62" d="M0,0V14.111" transform="translate(15.73 0.694)" fill="none" stroke="#ff7b49" stroke-linecap="round" stroke-width="3"/>
      <path id="Path_57-2" data-name="Path 57" d="M13,6.7,16.7,3l3.7,3.7" transform="translate(-0.971 -3)" fill="none" stroke="#ff7b49" stroke-linecap="round" stroke-linejoin="round" stroke-width="3"/>
      <path id="Path_58-2" data-name="Path 58" d="M6.7,13.4,3,9.7,6.7,6" transform="translate(-2.075 5.239)" fill="none" stroke="#ff7b49" stroke-linecap="round" stroke-linejoin="round" stroke-width="3"/>
      <path id="Path_59-2" data-name="Path 59" d="M14.513,14.953A10.062,10.062,0,0,0,5.776,10H3" transform="translate(-2.075 4.94)" fill="none" stroke="#ff7b49" stroke-linecap="round" stroke-linejoin="round" stroke-width="3"/>
      <path id="Path_60-2" data-name="Path 60" d="M3,13.4,6.7,9.7,3,6" transform="translate(23.833 5.103)" fill="none" stroke="#ff7b49" stroke-linecap="round" stroke-linejoin="round" stroke-width="3"/>
      <path id="Path_61-2" data-name="Path 61" d="M3,20.178A10.178,10.178,0,0,1,13.178,10h2.776" transform="translate(14.58 4.805)" fill="none" stroke="#ff7b49" stroke-linecap="round" stroke-linejoin="round" stroke-width="3"/>
    </g>
  </g>
</svg>
