<svg xmlns="http://www.w3.org/2000/svg" xmlns:xlink="http://www.w3.org/1999/xlink" width="90" height="90" viewBox="0 0 90 90">
  <defs>
    <clipPath id="clip-path">
      <rect id="Rectangle_33" data-name="Rectangle 33" width="90" height="90" transform="translate(1588 928)" fill="#fc9898" opacity="0.73"/>
    </clipPath>
  </defs>
  <g id="proven-result" transform="translate(-1588 -928)" clip-path="url(#clip-path)">
    <g id="proven-result-2" data-name="proven-result" transform="translate(1227 503.956)">
      <path id="Path_415" data-name="Path 415" d="M7724.05,6619.45v24.19l10.086-10.086,10.085,10.086v-24.19" transform="translate(-7327.639 -6133.376)" fill="none" stroke="#ff7b49" stroke-linecap="round" stroke-width="3"/>
      <g id="Group_257" data-name="Group 257" transform="translate(381.696 444.119)">
        <g id="Ellipse_44" data-name="Ellipse 44" transform="translate(0 0)" fill="#fff" stroke="#6a4a98" stroke-width="3">
          <ellipse cx="24.593" cy="24.169" rx="24.593" ry="24.169" stroke="none"/>
          <ellipse cx="24.593" cy="24.169" rx="23.093" ry="22.669" fill="none"/>
        </g>
        <path id="Icon_feather-check" data-name="Icon feather-check" d="M26.431,9,12.385,23.046,6,16.661" transform="translate(8.245 7.492)" fill="none" stroke="#ff7b49" stroke-linecap="round" stroke-linejoin="round" stroke-width="3"/>
      </g>
      <g id="Group_258" data-name="Group 258" transform="translate(380 428.044)">
        <path id="Icon_feather-star" data-name="Icon feather-star" d="M9.487,3l2,4.061,4.483.656-3.244,3.16.763,4.463L9.487,13.231,5.478,15.339l.763-4.463L3,7.717l4.483-.656Z" transform="translate(-3 3.783)" fill="none" stroke="#6a4a98" stroke-linecap="round" stroke-linejoin="round" stroke-width="2"/>
        <path id="Icon_feather-star-2" data-name="Icon feather-star" d="M9.487,3l2,4.061,4.483.656-3.244,3.16.763,4.463L9.487,13.231,5.478,15.339l.763-4.463L3,7.717l4.483-.656Z" transform="translate(17.399 -3)" fill="none" stroke="#6a4a98" stroke-linecap="round" stroke-linejoin="round" stroke-width="2"/>
        <path id="Icon_feather-star-3" data-name="Icon feather-star" d="M9.487,3l2,4.061,4.483.656-3.244,3.16.763,4.463L9.487,13.231,5.478,15.339l.763-4.463L3,7.717l4.483-.656Z" transform="translate(36.912 3.783)" fill="none" stroke="#6a4a98" stroke-linecap="round" stroke-linejoin="round" stroke-width="2"/>
      </g>
    </g>
  </g>
</svg>
